<?xml version="1.0" encoding="UTF-8" standalone="no"?>
<!-- Created with Inkscape (http://www.inkscape.org/) -->

<svg
   xmlns:dc="http://purl.org/dc/elements/1.1/"
   xmlns:cc="http://creativecommons.org/ns#"
   xmlns:rdf="http://www.w3.org/1999/02/22-rdf-syntax-ns#"
   xmlns:svg="http://www.w3.org/2000/svg"
   xmlns="http://www.w3.org/2000/svg"
   xmlns:xlink="http://www.w3.org/1999/xlink"
   version="1.1"
   width="40"
   height="240"
   id="svg2">
  <defs
     id="defs4">
    <linearGradient
       x1="460.41022"
       y1="702.47705"
       x2="451.34674"
       y2="699.64862"
       id="linearGradient4866"
       xlink:href="#linearGradient4853"
       gradientUnits="userSpaceOnUse"
       gradientTransform="translate(-309.79629,328.08243)" />
    <linearGradient
       id="linearGradient4853">
      <stop
         id="stop4855"
         style="stop-color:#f35d3a;stop-opacity:1"
         offset="0" />
      <stop
         id="stop4857"
         style="stop-color:#fa9366;stop-opacity:1"
         offset="1" />
    </linearGradient>
    <linearGradient
       x1="626.41718"
       y1="1283.3361"
       x2="608.38464"
       y2="1278.8361"
       id="linearGradient4822"
       xlink:href="#linearGradient4762"
       gradientUnits="userSpaceOnUse"
       gradientTransform="matrix(0.69133883,0,0,0.67246403,-273.60175,165.89327)" />
    <linearGradient
       id="linearGradient4762">
      <stop
         id="stop4764"
         style="stop-color:#e83e24;stop-opacity:1"
         offset="0" />
      <stop
         id="stop4766"
         style="stop-color:#fc8b60;stop-opacity:1"
         offset="1" />
    </linearGradient>
    <linearGradient
       x1="439.03125"
       y1="693.96875"
       x2="469.08929"
       y2="709.14734"
       id="linearGradient4820"
       xlink:href="#linearGradient4814"
       gradientUnits="userSpaceOnUse"
       gradientTransform="translate(-311.12212,327.64049)" />
    <linearGradient
       id="linearGradient4814">
      <stop
         id="stop4816"
         style="stop-color:#f67e2e;stop-opacity:1"
         offset="0" />
      <stop
         id="stop4818"
         style="stop-color:#d50e01;stop-opacity:1"
         offset="1" />
    </linearGradient>
    <linearGradient
       x1="440.10907"
       y1="697.65222"
       x2="468.54037"
       y2="697.65222"
       id="linearGradient4758"
       xlink:href="#linearGradient4752"
       gradientUnits="userSpaceOnUse"
       gradientTransform="translate(-311.12212,327.64049)" />
    <linearGradient
       id="linearGradient4752">
      <stop
         id="stop4754"
         style="stop-color:#fcba88;stop-opacity:1"
         offset="0" />
      <stop
         id="stop4756"
         style="stop-color:#ff895b;stop-opacity:1"
         offset="1" />
    </linearGradient>
    <linearGradient
       x1="439.03256"
       y1="693.96716"
       x2="468.81335"
       y2="699.86005"
       id="linearGradient4750"
       xlink:href="#linearGradient4744"
       gradientUnits="userSpaceOnUse"
       gradientTransform="translate(-311.12212,327.64049)" />
    <linearGradient
       id="linearGradient4744">
      <stop
         id="stop4746"
         style="stop-color:#fff3ea;stop-opacity:1"
         offset="0" />
      <stop
         id="stop4748"
         style="stop-color:#ffc5a0;stop-opacity:1"
         offset="1" />
    </linearGradient>
    <linearGradient
       x1="299.86908"
       y1="722.94672"
       x2="342.60132"
       y2="680.25397"
       id="linearGradient4578"
       xlink:href="#linearGradient10305-2-7"
       gradientUnits="userSpaceOnUse"
       gradientTransform="matrix(0.1316083,0,0,0.1316083,109.09301,877.48206)" />
    <linearGradient
       id="linearGradient10305-2-7">
      <stop
         id="stop10307-0-4"
         style="stop-color:#ffffff;stop-opacity:1"
         offset="0" />
      <stop
         id="stop10309-1-0"
         style="stop-color:#e1e1e1;stop-opacity:1"
         offset="1" />
    </linearGradient>
    <filter
       color-interpolation-filters="sRGB"
       id="filter4602">
      <feGaussianBlur
         id="feGaussianBlur4604"
         stdDeviation="0.1425" />
    </filter>
    <linearGradient
       x1="173.39584"
       y1="927.57251"
       x2="341.46878"
       y2="689.87524"
       id="linearGradient4586"
       xlink:href="#linearGradient10305-2-7"
       gradientUnits="userSpaceOnUse"
       gradientTransform="matrix(0.1316083,0,0,0.1316083,109.09301,877.48206)" />
    <linearGradient
       x1="681.73065"
       y1="462.7001"
       x2="697.81995"
       y2="448.2001"
       id="linearGradient10554"
       xlink:href="#linearGradient10321-6-4"
       gradientUnits="userSpaceOnUse"
       gradientTransform="matrix(0.1316083,0,0,0.1316083,109.09301,877.48206)" />
    <linearGradient
       id="linearGradient10321-6-4">
      <stop
         id="stop10323-3-4"
         style="stop-color:#ffffff;stop-opacity:1"
         offset="0" />
      <stop
         id="stop10325-4-1"
         style="stop-color:#cccccc;stop-opacity:1"
         offset="1" />
    </linearGradient>
    <filter
       color-interpolation-filters="sRGB"
       id="filter10394-5">
      <feGaussianBlur
         id="feGaussianBlur10396-2"
         stdDeviation="1.0341434" />
    </filter>
    <linearGradient
       x1="513.43665"
       y1="433.86218"
       x2="652.31335"
       y2="480.36218"
       id="linearGradient10562"
       xlink:href="#linearGradient10297-7"
       gradientUnits="userSpaceOnUse"
       gradientTransform="matrix(0.1316083,0,0,0.1316083,109.09301,877.48206)" />
    <linearGradient
       id="linearGradient10297-7">
      <stop
         id="stop10299-9"
         style="stop-color:#ff0e0f;stop-opacity:1"
         offset="0" />
      <stop
         id="stop10301-1"
         style="stop-color:#8d0400;stop-opacity:1"
         offset="1" />
    </linearGradient>
    <linearGradient
       x1="504.1875"
       y1="427.36218"
       x2="667.5625"
       y2="487.36218"
       id="linearGradient10565"
       xlink:href="#linearGradient10289-6"
       gradientUnits="userSpaceOnUse"
       gradientTransform="matrix(0.1316083,0,0,0.1316083,109.09301,877.48206)" />
    <linearGradient
       id="linearGradient10289-6">
      <stop
         id="stop10291-9"
         style="stop-color:#e50003;stop-opacity:1"
         offset="0" />
      <stop
         id="stop10293-3"
         style="stop-color:#5f0000;stop-opacity:1"
         offset="1" />
    </linearGradient>
    <linearGradient
       x1="565.74854"
       y1="636.72449"
       x2="707.88245"
       y2="469.72449"
       id="linearGradient10569"
       xlink:href="#linearGradient10305-2"
       gradientUnits="userSpaceOnUse"
       gradientTransform="matrix(0.1316083,0,0,0.1316083,109.09282,877.48206)" />
    <linearGradient
       id="linearGradient10305-2">
      <stop
         id="stop10307-0"
         style="stop-color:#ffffff;stop-opacity:1"
         offset="0" />
      <stop
         id="stop10309-1"
         style="stop-color:#e1e1e1;stop-opacity:1"
         offset="1" />
    </linearGradient>
    <filter
       color-interpolation-filters="sRGB"
       id="filter10331-5">
      <feGaussianBlur
         id="feGaussianBlur10333-0"
         stdDeviation="2.0417709" />
    </filter>
    <linearGradient
       id="linearGradient10359-1">
      <stop
         id="stop10361-7"
         style="stop-color:#799bda;stop-opacity:1"
         offset="0" />
      <stop
         id="stop10363-4"
         style="stop-color:#a7c2ec;stop-opacity:1"
         offset="1" />
    </linearGradient>
    <linearGradient
       x1="626.41718"
       y1="1283.3361"
       x2="608.38464"
       y2="1278.8361"
       id="linearGradient10555"
       xlink:href="#linearGradient10432-0"
       gradientUnits="userSpaceOnUse"
       gradientTransform="translate(-10.960155,114.5513)" />
    <linearGradient
       id="linearGradient10432-0">
      <stop
         id="stop10434-9"
         style="stop-color:#2050bd;stop-opacity:1"
         offset="0" />
      <stop
         id="stop10436-4"
         style="stop-color:#7fa0dc;stop-opacity:1"
         offset="1" />
    </linearGradient>
    <filter
       color-interpolation-filters="sRGB"
       id="filter10428-8">
      <feGaussianBlur
         id="feGaussianBlur10430-8"
         stdDeviation="0.1386842" />
    </filter>
    <linearGradient
       id="linearGradient10298-2">
      <stop
         id="stop10300-4"
         style="stop-color:#718bc2;stop-opacity:1"
         offset="0" />
      <stop
         id="stop10302-5"
         style="stop-color:#ffffff;stop-opacity:1"
         offset="1" />
    </linearGradient>
    <filter
       color-interpolation-filters="sRGB"
       id="filter4606">
      <feGaussianBlur
         id="feGaussianBlur4608"
         stdDeviation="0.48" />
    </filter>
    <linearGradient
       x1="527.98779"
       y1="538.97998"
       x2="512.21051"
       y2="533.6767"
       id="linearGradient4602"
       xlink:href="#linearGradient10298-2"
       gradientUnits="userSpaceOnUse"
       gradientTransform="matrix(0.69133883,0,0,0.67246403,-218.7887,598.92554)" />
    <linearGradient
       x1="529.18103"
       y1="1286.7018"
       x2="522.02161"
       y2="1284.0944"
       id="linearGradient4605"
       xlink:href="#linearGradient10298-2"
       gradientUnits="userSpaceOnUse"
       gradientTransform="matrix(0.69133883,0,0,0.67246403,-210.5088,91.65171)" />
    <linearGradient
       x1="527.98779"
       y1="538.97998"
       x2="512.21051"
       y2="533.6767"
       id="linearGradient4608"
       xlink:href="#linearGradient10298-2"
       gradientUnits="userSpaceOnUse"
       gradientTransform="matrix(0.69133883,0,0,0.67246403,-210.9671,597.58819)" />
    <linearGradient
       x1="619.63184"
       y1="1264.9922"
       x2="584.3009"
       y2="1289.0338"
       id="linearGradient4614"
       xlink:href="#linearGradient10359-1"
       gradientUnits="userSpaceOnUse"
       gradientTransform="matrix(0.69133883,0,0,0.67246403,-273.5705,91.65171)" />
  </defs>
  <metadata
     id="metadata7">
    <rdf:RDF>
      <cc:Work
         rdf:about="">
        <dc:format>image/svg+xml</dc:format>
        <dc:type
           rdf:resource="http://purl.org/dc/dcmitype/StillImage" />
        <dc:title></dc:title>
      </cc:Work>
    </rdf:RDF>
  </metadata>
  <g
     transform="translate(0,-812.36218)"
     id="layer1">
    <path
       d="m 13,937.375 -2,2 0,25.9688 2,2.0312 20,0 2,-2 0,-19 -8,-9 -14,0 z m 0,2 2,0 11,0 0,6 3,3 4,0 0,17 -2,0 -16,0 -2,-0.031 0,-25.9688 z"
       id="path3769-1"
       style="color:#000000;fill:#383b34;fill-opacity:1;stroke:#808000;stroke-width:0.01;stroke-linecap:round;stroke-linejoin:miter;stroke-miterlimit:4;stroke-opacity:1;stroke-dasharray:none;stroke-dashoffset:0;marker:none;visibility:visible;display:inline;overflow:visible;enable-background:accumulate" />
    <path
       d="m 5,943.375 0,19 20,0 0,-19 -20,0 z"
       id="path3846"
       style="color:#000000;fill:#ffffff;fill-opacity:1;stroke:#000000;stroke-width:0;stroke-linecap:round;stroke-linejoin:miter;stroke-miterlimit:4;stroke-opacity:1;stroke-dashoffset:0;marker:none;visibility:visible;display:inline;overflow:visible;enable-background:accumulate" />
    <path
       d="m 5,943.375 0,19 20,0 0,-19 -20,0 z m 2,2 16,0 0,15 -16,0 0,-15 z"
       id="rect2998"
       style="color:#000000;fill:#067638;fill-opacity:1;stroke:#000000;stroke-width:0;stroke-linecap:round;stroke-linejoin:miter;stroke-miterlimit:4;stroke-opacity:1;stroke-dashoffset:0;marker:none;visibility:visible;display:inline;overflow:visible;enable-background:accumulate" />
    <path
       d="m 10,948.375 3.5,5 -3.5,5 3,0 2,-2.84375 2,2.84375 3,0 -3.5,-5 3.5,-5 -3,0 -2,2.84375 -2,-2.84375 -3,0 z"
       id="path3769"
       style="color:#000000;fill:#067638;fill-opacity:1;stroke:none;stroke-width:0.01;marker:none;visibility:visible;display:inline;overflow:visible;enable-background:accumulate" />
    <path
       d="m 12,831.36218 17,0 0,2 -17,0 z"
       id="rect4569"
       style="color:#000000;fill:#383b34;fill-opacity:1;fill-rule:nonzero;stroke:none;stroke-width:0.1;marker:none;visibility:visible;display:inline;overflow:visible;enable-background:accumulate" />
    <rect
       width="40"
       height="40"
       x="0"
       y="1012.3622"
       id="rect4534"
       style="color:#000000;fill:none;stroke:none;stroke-width:0.01;marker:none;visibility:visible;display:inline;overflow:visible;enable-background:accumulate" />
    <rect
       width="40"
       height="40"
       x="0"
       y="972.36218"
       id="rect4536"
       style="color:#000000;fill:none;stroke:none;stroke-width:0.01;marker:none;visibility:visible;display:inline;overflow:visible;enable-background:accumulate" />
    <rect
       width="40"
       height="40"
       x="0"
       y="932.36218"
       id="rect4538"
       style="color:#000000;fill:none;stroke:none;stroke-width:0.01;marker:none;visibility:visible;display:inline;overflow:visible;enable-background:accumulate" />
    <rect
       width="40"
       height="40"
       x="0"
       y="892.36218"
       id="rect4540"
       style="color:#000000;fill:none;stroke:none;stroke-width:0.01;marker:none;visibility:visible;display:inline;overflow:visible;enable-background:accumulate" />
    <rect
       width="40"
       height="40"
       x="0"
       y="852.36218"
       id="rect4542"
       style="color:#000000;fill:none;stroke:none;stroke-width:0.01;marker:none;visibility:visible;display:inline;overflow:visible;enable-background:accumulate" />
    <rect
       width="40"
       height="40"
       x="0"
       y="812.36218"
       id="rect4544"
       style="color:#000000;fill:none;stroke:none;stroke-width:0.01;marker:none;visibility:visible;display:inline;overflow:visible;enable-background:accumulate" />
    <path
       d="m 13,977.375 -2,2 0,25.9688 2,2.0312 20,0 2,-2 0,-19 -8,-9 -14,0 z m 0,2 2,0 11,0 0,6 3,3 4,0 0,17 -2,0 -16,0 -2,-0.031 0,-25.9688 z"
       id="path4546"
       style="color:#000000;fill:#383b34;fill-opacity:1;stroke:#808000;stroke-width:0.01;stroke-linecap:round;stroke-linejoin:miter;stroke-miterlimit:4;stroke-opacity:1;stroke-dasharray:none;stroke-dashoffset:0;marker:none;visibility:visible;display:inline;overflow:visible;enable-background:accumulate" />
    <path
       d="m 5,983.375 0,19 20,0 0,-19 -20,0 z"
       id="path4548"
       style="color:#000000;fill:#ffffff;fill-opacity:1;stroke:#000000;stroke-width:0;stroke-linecap:round;stroke-linejoin:miter;stroke-miterlimit:4;stroke-opacity:1;stroke-dashoffset:0;marker:none;visibility:visible;display:inline;overflow:visible;enable-background:accumulate" />
    <path
       d="m 5,983.375 0,19 20,0 0,-19 -20,0 z m 2,2 16,0 0,15 -16,0 0,-15 z"
       id="path4550"
       style="color:#000000;fill:#0e69c6;fill-opacity:1;stroke:#000000;stroke-width:0;stroke-linecap:round;stroke-linejoin:miter;stroke-miterlimit:4;stroke-opacity:1;stroke-dashoffset:0;marker:none;visibility:visible;display:inline;overflow:visible;enable-background:accumulate" />
    <path
       d="m 13,1017.375 -2,2 0,25.9688 2,2.0312 20,0 2,-2 0,-19 -8,-9 -14,0 z m 0,2 2,0 11,0 0,6 3,3 4,0 0,17 -2,0 -16,0 -2,-0.031 0,-25.9688 z"
       id="path4556"
       style="color:#000000;fill:#383b34;fill-opacity:1;stroke:#808000;stroke-width:0.01;stroke-linecap:round;stroke-linejoin:miter;stroke-miterlimit:4;stroke-opacity:1;stroke-dasharray:none;stroke-dashoffset:0;marker:none;visibility:visible;display:inline;overflow:visible;enable-background:accumulate" />
    <path
       d="m 5,1023.375 0,19 20,0 0,-19 -20,0 z"
       id="path4558"
       style="color:#000000;fill:#ffffff;fill-opacity:1;stroke:#000000;stroke-width:0;stroke-linecap:round;stroke-linejoin:miter;stroke-miterlimit:4;stroke-opacity:1;stroke-dashoffset:0;marker:none;visibility:visible;display:inline;overflow:visible;enable-background:accumulate" />
    <path
       d="m 5,1023.375 0,19 20,0 0,-19 -20,0 z m 2,2 16,0 0,15 -16,0 0,-15 z"
       id="path4560"
       style="color:#000000;fill:#dd4f15;fill-opacity:1;stroke:#000000;stroke-width:0;stroke-linecap:round;stroke-linejoin:miter;stroke-miterlimit:4;stroke-opacity:1;stroke-dashoffset:0;marker:none;visibility:visible;display:inline;overflow:visible;enable-background:accumulate" />
    <path
       d="m 13,897.375 -2,2 0,25.9688 2,2.0312 20,0 2,-2 0,-19 -8,-9 -14,0 z m 0,2 2,0 11,0 0,6 3,3 4,0 0,17 -2,0 -16,0 -2,-0.031 0,-25.9688 z"
       id="path4566"
       style="color:#000000;fill:#383b34;fill-opacity:1;stroke:#808000;stroke-width:0.01;stroke-linecap:round;stroke-linejoin:miter;stroke-miterlimit:4;stroke-opacity:1;stroke-dasharray:none;stroke-dashoffset:0;marker:none;visibility:visible;display:inline;overflow:visible;enable-background:accumulate" />
    <path
       d="m 5,903.375 0,19 20,0 0,-19 -20,0 z"
       id="path4568"
       style="color:#000000;fill:#ffffff;fill-opacity:1;stroke:#000000;stroke-width:0;stroke-linecap:round;stroke-linejoin:miter;stroke-miterlimit:4;stroke-opacity:1;stroke-dashoffset:0;marker:none;visibility:visible;display:inline;overflow:visible;enable-background:accumulate" />
    <path
       d="m 5,903.375 0,19 20,0 0,-19 -20,0 z m 2,2 16,0 0,15 -16,0 0,-15 z"
       id="path4570"
       style="color:#000000;fill:#b3b3b3;fill-opacity:1;stroke:#000000;stroke-width:0;stroke-linecap:round;stroke-linejoin:miter;stroke-miterlimit:4;stroke-opacity:1;stroke-dashoffset:0;marker:none;visibility:visible;display:inline;overflow:visible;enable-background:accumulate" />
    <path
       d="m 13,857.375 -2,2 0,25.9688 2,2.0312 20,0 2,-2 0,-19 -8,-9 -14,0 z m 0,2 2,0 11,0 0,6 3,3 4,0 0,17 -2,0 -16,0 -2,-0.031 0,-25.9688 z"
       id="path4577"
       style="color:#000000;fill:#383b34;fill-opacity:1;stroke:#808000;stroke-width:0.01;stroke-linecap:round;stroke-linejoin:miter;stroke-miterlimit:4;stroke-opacity:1;stroke-dasharray:none;stroke-dashoffset:0;marker:none;visibility:visible;display:inline;overflow:visible;enable-background:accumulate" />
    <path
       d="m 5,863.375 0,19 20,0 0,-19 -20,0 z"
       id="path4579"
       style="color:#000000;fill:#ffffff;fill-opacity:1;stroke:#000000;stroke-width:0;stroke-linecap:round;stroke-linejoin:miter;stroke-miterlimit:4;stroke-opacity:1;stroke-dashoffset:0;marker:none;visibility:visible;display:inline;overflow:visible;enable-background:accumulate" />
    <path
       d="m 5,863.375 0,19 20,0 0,-19 -20,0 z m 2,2 16,0 0,15 -16,0 0,-15 z"
       id="path4581"
       style="color:#000000;fill:#f8240e;fill-opacity:1;stroke:#000000;stroke-width:0;stroke-linecap:round;stroke-linejoin:miter;stroke-miterlimit:4;stroke-opacity:1;stroke-dashoffset:0;marker:none;visibility:visible;display:inline;overflow:visible;enable-background:accumulate" />
    <path
       d="m 10,817.375 -2,2 0,25.9688 2,2.0312 21,0 2,-2 0,-19 -8,-9 z m 0,2 2,0 12,0 0,6 3,3 4,0 0,17 -2,0 -17,0 -2,-0.031 0,-25.9688 z"
       id="path4587"
       style="color:#000000;fill:#383b34;fill-opacity:1;stroke:#808000;stroke-width:0.01;stroke-linecap:round;stroke-linejoin:miter;stroke-miterlimit:4;stroke-opacity:1;stroke-dasharray:none;stroke-dashoffset:0;marker:none;visibility:visible;display:inline;overflow:visible;enable-background:accumulate" />
    <path
       d="m 8.9131211,988.35591 2.2556329,0 1.218554,6.14218 1.668035,-6.14218 1.832079,0 1.47783,6.26825 1.11485,-4.69072 -0.85558,0 0,-1.57753 3.218823,0 -2.30486,9.98589 -2.210306,0 -1.465781,-6.01255 -1.635627,6.01255 -1.954312,0 z"
       id="path10519"
       style="color:#000000;fill:#0e69c6;fill-opacity:1;stroke:none;stroke-width:0.1;marker:none;visibility:visible;display:inline;overflow:visible;enable-background:accumulate" />
    <path
       d="m 10.611995,1027.3275 0,2.0298 1.395549,0 0,10.0174 2.141972,0 0,-4.3264 2.491347,0 c 3.98702,0 3.955353,-7.7208 0,-7.7208 z m 5.30072,2.0298 c 2.195366,0 2.170222,3.5552 0,3.5552 l -1.763199,0 0,-3.5331 z"
       id="path4768"
       style="color:#000000;fill:#dd4f15;fill-opacity:1;stroke:none;stroke-width:0.1;marker:none;visibility:visible;display:inline;overflow:visible;enable-background:accumulate" />
    <path
       d="m 14.187527,866.64544 c -1.455,0.0511 -0.276799,3.60941 -0.132861,4.31801 0,0 -0.29894,0.84146 -1.295401,2.84545 -0.996467,2.004 -2.485205,4.51676 -3.573431,4.73597 -0.02349,-1.06474 2.075964,-2.59081 2.075964,-2.59081 -1.148319,0.35401 -2.366094,1.7317 -2.455168,1.99569 -0.09076,0.26899 -0.134024,0.88084 0.905119,0.77504 0.946798,-0.0964 2.272484,-2.30293 2.637858,-3.10011 0.447455,-0.20365 2.911884,-0.80824 4.705518,-1.08504 3.144391,1.60541 4.015267,1.05205 4.030141,0.44288 -0.4318,0.65323 -2.178385,-0.16608 -3.08627,-0.58681 1.085037,-0.18823 2.75411,-0.0885 3.130554,0.4318 0.08858,-1.02968 -1.439332,-0.93003 -3.830846,-0.77503 -1.671846,-0.84145 -2.469013,-2.92296 -2.679378,-3.36583 0.09965,-0.36536 0.243578,-2.3915 0.243578,-2.3915 0,0 -0.160541,0.8027 -0.453942,1.74934 -0.243579,-0.62556 -0.58399,-3.13621 -0.14947,-3.23851 0.505953,-0.11912 0.658775,1.12933 0.603412,1.4338 0,0 0.463095,-1.63431 -0.675377,-1.59434 z m 0.132859,4.98232 c 0.453943,0.79716 1.660774,2.30293 2.192221,2.5908 -0.741811,0.12178 -3.686916,0.95218 -3.985855,1.10718 0,0 1.671846,-3.17761 1.793634,-3.69798 z"
       id="path10260-8"
       style="color:#000000;fill:#f8240e;fill-opacity:1;stroke:#f8240e;stroke-width:0.1;stroke-opacity:1;marker:none;visibility:visible;display:inline;overflow:visible;enable-background:accumulate" />
    <path
       d="m 12,835.36218 17,0 0,2 -17,0 z"
       id="path4620"
       style="color:#000000;fill:#383b34;fill-opacity:1;fill-rule:nonzero;stroke:none;stroke-width:0.1;marker:none;visibility:visible;display:inline;overflow:visible;enable-background:accumulate" />
    <path
       d="m 12,839.36218 17,0 0,2 -17,0 z"
       id="path4622"
       style="color:#000000;fill:#383b34;fill-opacity:1;fill-rule:nonzero;stroke:none;stroke-width:0.1;marker:none;visibility:visible;display:inline;overflow:visible;enable-background:accumulate" />
    <path
       d="m 12,914.375 0,1 6,0 0,-1 z"
       id="path4634"
       style="color:#000000;fill:#383b34;fill-opacity:1;stroke:#000000;stroke-width:0;stroke-linecap:round;stroke-linejoin:miter;stroke-miterlimit:4;stroke-opacity:1;stroke-dashoffset:0;marker:none;visibility:visible;display:inline;overflow:visible;enable-background:accumulate" />
    <path
       d="m 10,917.375 2,0 4,-10 -2,0 z"
       id="path4636"
       style="color:#000000;fill:#383b34;fill-opacity:1;stroke:#000000;stroke-width:0;stroke-linecap:round;stroke-linejoin:miter;stroke-miterlimit:4;stroke-opacity:1;stroke-dashoffset:0;marker:none;visibility:visible;display:inline;overflow:visible;enable-background:accumulate" />
    <path
       d="m 20,917.375 -2,0 -4,-10 2,0 z"
       id="path4638"
       style="color:#000000;fill:#383b34;fill-opacity:1;stroke:#000000;stroke-width:0;stroke-linecap:round;stroke-linejoin:miter;stroke-miterlimit:4;stroke-opacity:1;stroke-dashoffset:0;marker:none;visibility:visible;display:inline;overflow:visible;enable-background:accumulate" />
  </g>
</svg>
