<?xml version="1.0" encoding="UTF-8" standalone="no"?>
<!-- Created with Inkscape (http://www.inkscape.org/) -->

<svg
   xmlns:dc="http://purl.org/dc/elements/1.1/"
   xmlns:cc="http://creativecommons.org/ns#"
   xmlns:rdf="http://www.w3.org/1999/02/22-rdf-syntax-ns#"
   xmlns:svg="http://www.w3.org/2000/svg"
   xmlns="http://www.w3.org/2000/svg"
   xmlns:xlink="http://www.w3.org/1999/xlink"
   xmlns:sodipodi="http://sodipodi.sourceforge.net/DTD/sodipodi-0.dtd"
   xmlns:inkscape="http://www.inkscape.org/namespaces/inkscape"
   width="1170"
   height="220"
   id="svg2"
   version="1.1"
   inkscape:version="0.48.4 r9939"
   sodipodi:docname="brands.svg">
  <sodipodi:namedview
     id="base"
     pagecolor="#ffffff"
     bordercolor="#666666"
     borderopacity="1.0"
     inkscape:pageopacity="0.0"
     inkscape:pageshadow="2"
     inkscape:zoom="1"
     inkscape:cx="677.0902"
     inkscape:cy="136.19669"
     inkscape:document-units="px"
     inkscape:current-layer="layer1"
     showgrid="false"
     inkscape:window-width="1305"
     inkscape:window-height="758"
     inkscape:window-x="498"
     inkscape:window-y="217"
     inkscape:window-maximized="0"
     showguides="true"
     inkscape:guide-bbox="true">
    <inkscape:grid
       type="xygrid"
       id="grid3901" />
  </sodipodi:namedview>
  <defs
     id="defs4">
    <linearGradient
       gradientUnits="userSpaceOnUse"
       y2="642.79651"
       x2="718.31116"
       y1="659.64929"
       x1="718.44464"
       id="linearGradient4326"
       xlink:href="#linearGradient4320"
       inkscape:collect="always" />
    <linearGradient
       id="linearGradient4320"
       inkscape:collect="always">
      <stop
         id="stop4322"
         offset="0"
         style="stop-color:#a6a6a6;stop-opacity:1;" />
      <stop
         id="stop4324"
         offset="1"
         style="stop-color:#a6a6a6;stop-opacity:0;" />
    </linearGradient>
  </defs>
  <metadata
     id="metadata7">
    <rdf:RDF>
      <cc:Work
         rdf:about="">
        <dc:format>image/svg+xml</dc:format>
        <dc:type
           rdf:resource="http://purl.org/dc/dcmitype/StillImage" />
        <dc:title></dc:title>
      </cc:Work>
    </rdf:RDF>
  </metadata>
  <g
     transform="translate(0,-832.36218)"
     id="layer1"
     inkscape:groupmode="layer"
     inkscape:label="Layer 1">
    <path
       style="color:#000000;fill:#323232;fill-opacity:1;stroke:#000000;stroke-width:0.1;stroke-linecap:butt;stroke-linejoin:miter;stroke-miterlimit:4;stroke-opacity:1;stroke-dasharray:none;stroke-dashoffset:0;marker:none;visibility:visible;display:inline;overflow:visible;enable-background:accumulate"
       d="m 665.07947,1157.7186 c -18.16326,13.7574 -32.89122,22.2833 -59.90586,37.4593 -3.84075,2.1576 -10.00939,9.9018 0.65666,13.5331 15.88805,5.4093 23.3044,-1.286 30.3949,-7.7298 6.57673,-5.977 14.10047,-14.3907 22.13525,-21.6751 12.1529,-11.0179 16.67122,-14.0945 24.02066,-20.1791 1.89486,-1.5687 1.55688,-5.0494 -4.69826,-5.6907 -5.71154,-0.5855 -9.08242,1.6154 -12.60335,4.2823 z"
       id="path3901"
       inkscape:connector-curvature="0"
       sodipodi:nodetypes="ssssssss" />
    <g
       transform="matrix(1.0882759,0,0,1.0882759,150.92971,-93.765765)"
       id="g5321"
       inkscape:export-filename="D:\Dima\UMI_market\Sport\Brands\bt.png"
       inkscape:export-xdpi="90"
       inkscape:export-ydpi="90">
      <g
         style="font-size:22.8976078px;font-style:normal;font-variant:normal;font-weight:normal;font-stretch:normal;text-align:center;line-height:125%;letter-spacing:0px;word-spacing:0px;text-anchor:middle;fill:#323232;fill-opacity:1;stroke:none;font-family:Tahoma;-inkscape-font-specification:Tahoma"
         id="text11456"
         transform="translate(-96,215)"
         inkscape:export-filename="D:\Dima\UMI_market\UShop_Mega\pict\Brands\bt.png"
         inkscape:export-xdpi="180"
         inkscape:export-ydpi="180">
        <path
           d="m 680.47989,729.60836 c 0.57998,-0.56507 0.86997,-1.48093 0.86999,-2.7476 -0.0154,-2.73268 -1.38919,-4.09902 -4.12141,-4.09904 l -9.6173,0 0,13.73871 9.6173,0 c 2.74759,0 4.12139,-1.3738 4.12141,-4.1214 -2e-5,-1.25175 -0.29001,-2.1753 -0.86999,-2.77067 z m -3.25142,-1.35074 -6.8697,0 0,-2.7483 6.8697,0 c 0.91586,10e-6 1.37379,0.45795 1.3738,1.3738 -10e-6,0.91635 -0.45794,1.37451 -1.3738,1.3745 z m 0,5.49521 -6.8697,0 0,-2.74761 6.8697,0 c 0.91586,10e-6 1.37379,0.45794 1.3738,1.37381 -10e-6,0.91587 -0.45794,1.3738 -1.3738,1.3738 z"
           style="line-height:125%;letter-spacing:3px;writing-mode:lr-tb;fill:#323232;fill-opacity:1;font-family:Archangelsk;-inkscape-font-specification:Archangelsk"
           id="path3759"
           inkscape:connector-curvature="0" />
        <path
           d="m 699.46587,726.88312 0,1.3745 c -10e-6,2.74761 -1.37381,4.12141 -4.1214,4.12141 l 4.1214,4.1214 -3.8929,0 -4.1214,-4.1214 -2.9768,0 0,4.1214 -2.7476,0 0,-13.73871 9.6173,0 c 2.74759,2e-5 4.12139,1.37382 4.1214,4.1214 z m -2.7476,0 c -10e-6,-0.91585 -0.45794,-1.37379 -1.3738,-1.3738 l -6.8697,0 0,4.1221 6.8697,0 c 0.91586,10e-6 1.37379,-0.45792 1.3738,-1.3738 z"
           style="line-height:125%;letter-spacing:3px;writing-mode:lr-tb;fill:#323232;fill-opacity:1;font-family:Archangelsk;-inkscape-font-specification:Archangelsk"
           id="path3761"
           inkscape:connector-curvature="0" />
        <path
           d="m 717.58187,725.50932 -10.9911,0 0,2.7483 8.2435,0 0,2.7476 -8.2435,0 0,2.74761 10.9911,0 0,2.7476 -13.7387,0 0,-13.73871 13.7387,0 z"
           style="line-height:125%;letter-spacing:3px;writing-mode:lr-tb;fill:#323232;fill-opacity:1;font-family:Archangelsk;-inkscape-font-specification:Archangelsk"
           id="path3763"
           inkscape:connector-curvature="0" />
        <path
           d="m 735.69787,736.50043 -2.7476,0 0,-2.7476 -8.2435,0 0,2.7476 -2.7476,0 0,-9.61731 c 0,-2.74758 1.3738,-4.12138 4.1214,-4.1214 l 5.4959,0 c 2.74759,2e-5 4.12139,1.37382 4.1214,4.1214 z m -2.7476,-5.49521 0,-4.1221 c -1e-5,-0.91585 -0.45794,-1.37379 -1.3738,-1.3738 l -5.4959,0 c -0.91587,10e-6 -1.3738,0.45795 -1.3738,1.3738 l 0,4.1221 z"
           style="line-height:125%;letter-spacing:3px;writing-mode:lr-tb;fill:#323232;fill-opacity:1;font-family:Archangelsk;-inkscape-font-specification:Archangelsk"
           id="path3765"
           inkscape:connector-curvature="0" />
        <path
           d="m 753.81387,725.50932 -5.4959,0 0,10.99111 -2.7476,0 0,-10.99111 -5.4952,0 0,-2.7476 13.7387,0 z"
           style="line-height:125%;letter-spacing:3px;writing-mode:lr-tb;fill:#323232;fill-opacity:1;font-family:Archangelsk;-inkscape-font-specification:Archangelsk"
           id="path3767"
           inkscape:connector-curvature="0" />
        <path
           d="m 771.92987,736.50043 -2.7476,0 0,-5.49521 -8.2435,0 0,5.49521 -2.74761,0 0,-13.73871 2.74761,0 0,5.4959 8.2435,0 0,-5.4959 2.7476,0 z"
           style="line-height:125%;letter-spacing:3px;writing-mode:lr-tb;fill:#323232;fill-opacity:1;font-family:Archangelsk;-inkscape-font-specification:Archangelsk"
           id="path3770"
           inkscape:connector-curvature="0" />
      </g>
      <g
         style="font-size:20.28201294px;font-style:normal;font-variant:normal;font-weight:normal;font-stretch:normal;text-align:center;line-height:125%;letter-spacing:0px;word-spacing:0px;text-anchor:middle;fill:#323232;fill-opacity:1;stroke:none;font-family:Tahoma;-inkscape-font-specification:Tahoma"
         id="text11984"
         transform="translate(-96,215)"
         inkscape:export-filename="D:\Dima\UMI_market\UShop_Mega\pict\Brands\bt.png"
         inkscape:export-xdpi="180"
         inkscape:export-ydpi="180">
        <path
           d="m 677.67934,743.00776 c 0.066,1e-5 0.099,0.033 0.099,0.099 l 0,3.17897 c -10e-6,0.0726 -0.033,0.10894 -0.099,0.10893 l -0.75266,0 c -0.066,10e-6 -0.099,-0.0264 -0.099,-0.0792 l -0.40604,-2.29757 c -10e-6,-0.0528 -0.033,-0.0792 -0.099,-0.0792 l -3.28791,0 c -0.0528,1e-5 -0.0792,0.033 -0.0792,0.099 l 0,11.62651 c -10e-6,0.0594 0.033,0.0924 0.099,0.099 l 1.92125,0.15845 c 0.0726,0.007 0.10892,0.0429 0.10893,0.10894 l 0,0.52488 c -10e-6,0.066 -0.0363,0.099 -0.10893,0.099 l -5.81326,0 c -0.0726,0 -0.10894,-0.033 -0.10893,-0.099 l 0,-0.52488 c -10e-6,-0.066 0.0363,-0.10233 0.10893,-0.10894 l 1.92125,-0.15845 c 0.066,-0.007 0.099,-0.0396 0.099,-0.099 l 0,-11.62651 c 0,-0.066 -0.0264,-0.099 -0.0792,-0.099 l -3.28791,0 c -0.066,1e-5 -0.099,0.0264 -0.099,0.0792 l -0.40604,2.29757 c 0,0.0528 -0.033,0.0792 -0.099,0.0792 l -0.75265,0 c -0.066,10e-6 -0.099,-0.0363 -0.099,-0.10893 l 0,-3.17897 c 0,-0.066 0.033,-0.099 0.099,-0.099 z"
           style="text-align:start;line-height:125%;letter-spacing:6px;writing-mode:lr-tb;text-anchor:start;fill:#323232;fill-opacity:1;font-family:Sylfaen;-inkscape-font-specification:Sylfaen"
           id="path3746"
           inkscape:connector-curvature="0" />
        <path
           d="m 691.10683,745.74108 c -0.0264,-0.0396 -0.0528,-0.0594 -0.0792,-0.0594 -0.0396,10e-6 -0.066,0.0198 -0.0792,0.0594 l -1.91134,4.85263 c -0.0396,0.0924 -0.01,0.13865 0.0891,0.13864 l 3.66423,0 c 0.10562,10e-6 0.14194,-0.0462 0.10893,-0.13864 z m 1.97076,10.91346 c -0.066,0 -0.099,-0.033 -0.099,-0.099 l 0,-0.52488 c -1e-5,-0.0726 0.033,-0.10893 0.099,-0.10894 l 1.58454,-0.15845 c 0.0396,0 0.066,-0.0132 0.0792,-0.0396 0.0132,-0.0264 0.0132,-0.0594 0,-0.099 l -1.5053,-3.98114 c -0.0264,-0.0396 -0.0528,-0.0594 -0.0792,-0.0594 l -4.41688,0 c -0.033,0.007 -0.0594,0.0264 -0.0792,0.0594 l -1.60434,4.02075 c -0.033,0.0858 0,0.13204 0.099,0.13864 l 1.52512,0.11884 c 0.066,0.007 0.099,0.0429 0.099,0.10894 l 0,0.52488 c -10e-6,0.066 -0.033,0.099 -0.099,0.099 l -4.38718,0 c -0.066,0 -0.099,-0.033 -0.099,-0.099 l 0,-0.52488 c 0,-0.0726 0.033,-0.10893 0.099,-0.10894 l 1.66376,-0.15845 c 0.033,-0.007 0.0594,-0.0264 0.0792,-0.0594 l 5.15963,-12.98326 c 0.0264,-0.0396 0.0528,-0.0594 0.0792,-0.0594 l 0.50507,0 c 0.033,0.007 0.0594,0.0264 0.0792,0.0594 l 4.7437,12.96346 c 0.0132,0.0396 0.0429,0.0594 0.0891,0.0594 l 1.61424,0.17826 c 0.0594,10e-6 0.0891,0.0363 0.0891,0.10894 l 0,0.52488 c -10e-6,0.066 -0.0363,0.099 -0.10894,0.099 z"
           style="text-align:start;line-height:125%;letter-spacing:6px;writing-mode:lr-tb;text-anchor:start;fill:#323232;fill-opacity:1;font-family:Sylfaen;-inkscape-font-specification:Sylfaen"
           id="path3748"
           inkscape:connector-curvature="0" />
        <path
           d="m 705.46524,743.10679 c 0,-0.066 0.033,-0.099 0.099,-0.099 l 4.93186,0 c 0.066,10e-6 0.099,0.033 0.099,0.099 l 0,0.54468 c 0,0.0528 -0.0264,0.0792 -0.0792,0.0792 l -1.37656,0.16836 c -0.0528,10e-6 -0.0792,0.033 -0.0792,0.099 l 0,5.49635 4.90214,-5.51616 c 0.0264,-0.0264 0.033,-0.0594 0.0198,-0.099 -0.0132,-0.0396 -0.0396,-0.0594 -0.0792,-0.0594 l -0.83188,-0.0891 c -0.066,10e-6 -0.099,-0.033 -0.099,-0.099 l 0,-0.52488 c -10e-6,-0.066 0.033,-0.099 0.099,-0.099 l 4.09998,0 c 0.066,10e-6 0.099,0.033 0.099,0.099 l 0,0.52488 c -1e-5,0.066 -0.033,0.099 -0.099,0.099 l -1.89154,0.18816 c -0.0264,2e-5 -0.0462,0.007 -0.0594,0.0198 l -4.1792,4.70408 c -0.0198,0.0132 -0.033,0.033 -0.0396,0.0594 l 0.0198,0.0594 5.11012,6.94223 c 0.0264,0.0264 0.0462,0.0396 0.0594,0.0396 l 1.85192,0.17826 c 0.066,10e-6 0.099,0.0363 0.099,0.10894 l 0,0.52488 c -2e-5,0.066 -0.033,0.099 -0.099,0.099 l -5.0705,0 c -0.066,0 -0.099,-0.033 -0.099,-0.099 l 0,-0.52488 c -10e-6,-0.0726 0.033,-0.10893 0.099,-0.10894 l 0.8913,-0.0792 c 0.0396,0 0.066,-0.0165 0.0792,-0.0495 0.0132,-0.033 0.0132,-0.0693 0,-0.10893 l -4.11979,-5.53596 c -0.0264,-0.033 -0.0528,-0.0495 -0.0792,-0.0495 -0.0264,0.007 -0.0462,0.0231 -0.0594,0.0495 l -0.60411,0.68332 c -0.0132,0.0198 -0.0198,0.0396 -0.0198,0.0594 l 0,4.79322 c -10e-6,0.066 0.0264,0.099 0.0792,0.099 l 1.31714,0.13864 c 0.0528,10e-6 0.0792,0.0264 0.0792,0.0792 l 0,0.55459 c 0,0.066 -0.033,0.099 -0.099,0.099 l -4.87244,0 c -0.066,0 -0.099,-0.033 -0.099,-0.099 l 0,-0.52488 c 0,-0.0726 0.033,-0.10893 0.099,-0.10894 l 1.62415,-0.15845 c 0.066,0 0.099,-0.033 0.099,-0.099 l 0,-11.66612 c 0,-0.066 -0.033,-0.099 -0.099,-0.099 l -1.62415,-0.16836 c -0.066,10e-6 -0.099,-0.033 -0.099,-0.099 z"
           style="text-align:start;line-height:125%;letter-spacing:6px;writing-mode:lr-tb;text-anchor:start;fill:#323232;fill-opacity:1;font-family:Sylfaen;-inkscape-font-specification:Sylfaen"
           id="path3750"
           inkscape:connector-curvature="0" />
        <path
           d="m 730.46972,743.00776 c 0.066,1e-5 0.099,0.033 0.099,0.099 l 0,0.52488 c 0,0.066 -0.033,0.099 -0.099,0.099 l -1.72318,0.16836 c -0.066,10e-6 -0.099,0.033 -0.099,0.099 l 0,11.66612 c -1e-5,0.066 0.033,0.099 0.099,0.099 l 1.72318,0.15845 c 0.066,10e-6 0.099,0.0363 0.099,0.10894 l 0,0.52488 c 0,0.066 -0.033,0.099 -0.099,0.099 l -5.45673,0 c -0.066,0 -0.099,-0.033 -0.099,-0.099 l 0,-0.52488 c 0,-0.0726 0.033,-0.10893 0.099,-0.10894 l 1.72318,-0.15845 c 0.066,0 0.099,-0.033 0.099,-0.099 l 0,-11.66612 c 0,-0.066 -0.033,-0.099 -0.099,-0.099 l -1.72318,-0.16836 c -0.066,10e-6 -0.099,-0.033 -0.099,-0.099 l 0,-0.52488 c 0,-0.066 0.033,-0.099 0.099,-0.099 z"
           style="text-align:start;line-height:125%;letter-spacing:6px;writing-mode:lr-tb;text-anchor:start;fill:#323232;fill-opacity:1;font-family:Sylfaen;-inkscape-font-specification:Sylfaen"
           id="path3752"
           inkscape:connector-curvature="0" />
        <path
           d="m 737.73735,743.10679 c 0,-0.066 0.033,-0.099 0.099,-0.099 l 3.5751,0 c 0.033,0.007 0.0594,0.0198 0.0792,0.0396 l 7.52653,9.95284 0,-8.92289 c -1e-5,-0.066 -0.0297,-0.099 -0.0891,-0.099 l -1.4954,-0.15845 c -0.066,10e-6 -0.0991,-0.0363 -0.099,-0.10894 l 0,-0.6041 c -10e-6,-0.066 0.033,-0.099 0.099,-0.099 l 4.21881,0 c 0.066,1e-5 0.099,0.033 0.099,0.099 l 0,0.6041 c -2e-5,0.0726 -0.033,0.10895 -0.099,0.10894 l -1.52511,0.15845 c -0.066,2e-5 -0.099,0.033 -0.099,0.099 l 0,12.63664 c -10e-6,0.066 -0.0396,0.099 -0.11884,0.099 l -0.38623,0 c -0.033,-0.007 -0.066,-0.0264 -0.099,-0.0594 l -8.74464,-11.57698 0,10.39849 c 0,0.0726 0.0264,0.10894 0.0792,0.10894 l 1.48549,0.15845 c 0.066,0 0.099,0.033 0.099,0.099 l 0,0.61401 c -10e-6,0.066 -0.033,0.099 -0.099,0.099 l -4.21881,0 c -0.0726,0 -0.10894,-0.033 -0.10894,-0.099 l 0,-0.61401 c 0,-0.066 0.0363,-0.099 0.10894,-0.099 l 1.53501,-0.15845 c 0.0726,0 0.10894,-0.0363 0.10894,-0.10894 l 0,-11.49776 c 0,-0.066 -0.0363,-0.099 -0.10894,-0.099 l -1.72318,-0.15845 c -0.066,10e-6 -0.099,-0.0363 -0.099,-0.10894 z"
           style="text-align:start;line-height:125%;letter-spacing:6px;writing-mode:lr-tb;text-anchor:start;fill:#323232;fill-opacity:1;font-family:Sylfaen;-inkscape-font-specification:Sylfaen"
           id="path3754"
           inkscape:connector-curvature="0" />
        <path
           d="m 766.66355,742.70075 c 0.70642,2e-5 1.62083,0.11226 2.74322,0.33672 0.16504,0.033 0.42913,0.0825 0.79226,0.14855 0.066,0.0132 0.099,0.0462 0.099,0.099 l 0,3.07003 c -1e-5,0.066 -0.033,0.099 -0.099,0.099 l -0.79226,0 c -0.066,10e-6 -0.0991,-0.0264 -0.099,-0.0792 l -0.40603,-2.27777 c -10e-6,-0.0396 -0.0297,-0.0726 -0.0891,-0.099 -1.162,-0.25747 -1.92456,-0.38622 -2.28767,-0.38623 -1.776,10e-6 -3.17402,0.51664 -4.19406,1.54987 -1.02004,1.03326 -1.53007,2.43788 -1.53006,4.21387 -10e-6,1.7958 0.49186,3.32752 1.47559,4.59514 1.06956,1.37326 2.47913,2.05989 4.22872,2.05989 0.49516,0 1.17189,-0.0891 2.03019,-0.26739 l 0,-4.09998 c -2e-5,-0.066 -0.033,-0.099 -0.099,-0.099 l -1.73308,-0.15845 c -0.066,0 -0.099,-0.0429 -0.099,-0.12875 l 0,-0.48526 c -1e-5,-0.0792 0.0396,-0.11883 0.11884,-0.11884 l 5.17944,0 c 0.0792,10e-6 0.11882,0.0396 0.11884,0.11884 l 0,0.48526 c -2e-5,0.0858 -0.033,0.12875 -0.099,0.12875 l -1.52511,0.15845 c -0.0528,10e-6 -0.0858,0.0198 -0.099,0.0594 l 0,4.72389 c -10e-6,0.0396 -0.033,0.0759 -0.099,0.10893 -1.41288,0.32351 -2.73332,0.48527 -3.96133,0.48527 -2.12592,0 -3.8821,-0.64702 -5.26857,-1.94105 -1.41947,-1.32045 -2.12921,-3.03372 -2.12921,-5.13983 0,-1.41947 0.35322,-2.68544 1.05965,-3.79793 0.70644,-1.11246 1.70337,-1.96579 2.99081,-2.56001 1.16198,-0.53476 2.4197,-0.80215 3.77317,-0.80217 z"
           style="text-align:start;line-height:125%;letter-spacing:6px;writing-mode:lr-tb;text-anchor:start;fill:#323232;fill-opacity:1;font-family:Sylfaen;-inkscape-font-specification:Sylfaen"
           id="path3756"
           inkscape:connector-curvature="0" />
      </g>
      <path
         inkscape:connector-curvature="0"
         style="color:#000000;fill:#323232;fill-opacity:1;fill-rule:nonzero;stroke:none;stroke-width:2;marker:none;visibility:visible;display:inline;overflow:visible;enable-background:accumulate"
         d="m 540.75,105.21875 c -9.39898,0 -17.03125,7.64715 -17.03125,17.09375 0,5.1012 2.25716,9.6787 5.78125,12.8125 0.22063,-1.0827 0.5065,-2.14497 0.8125,-3.1875 -2.31469,-2.5361 -3.75,-5.91219 -3.75,-9.625 0,-7.87 6.35711,-14.25 14.1875,-14.25 2.43192,0 4.7186,0.60322 6.71875,1.6875 0.93411,-0.56043 1.89494,-1.08172 2.875,-1.5625 -2.73042,-1.8748 -6.03743,-2.96875 -9.59375,-2.96875 z m 25.21875,0.0625 c -17.65576,0.57426 -33.00007,13.69509 -35.8125,31.875 -0.70931,4.5851 -0.53911,9.0861 0.34375,13.375 -0.18197,-3.0079 -0.0734,-6.0868 0.40625,-9.1875 3.08206,-19.9228 19.42932,-34.4582 38.59375,-36 -1.19472,-0.0753 -2.3542,-0.10078 -3.53125,-0.0625 z m -12.46875,5.75 c -0.85305,0.45402 -1.68167,0.95693 -2.5,1.46875 2.42788,2.5575 3.9375,5.99856 3.9375,9.8125 0,7.8701 -6.3571,14.25 -14.1875,14.25 -2.61517,0 -5.05306,-0.72766 -7.15625,-1.96875 -0.30821,0.92362 -0.59788,1.85776 -0.84375,2.8125 2.38268,1.276 5.11177,2.03125 8,2.03125 9.39898,0 17.03125,-7.6784 17.03125,-17.125 0,-4.3322 -1.63959,-8.26745 -4.28125,-11.28125 z"
         transform="translate(0,832.36218)"
         id="path13625" />
    </g>
    <path
       style="font-size:medium;font-style:normal;font-variant:normal;font-weight:normal;font-stretch:normal;text-indent:0;text-align:start;text-decoration:none;line-height:normal;letter-spacing:normal;word-spacing:normal;text-transform:none;direction:ltr;block-progression:tb;writing-mode:lr-tb;text-anchor:start;baseline-shift:baseline;color:#000000;fill:#323232;fill-opacity:1;stroke:none;stroke-width:2.7650001;marker:none;visibility:visible;display:inline;overflow:visible;enable-background:accumulate;font-family:Sans;-inkscape-font-specification:Sans"
       d="m 1137.6074,499.08638 c -11.6119,-2.80741 -23.4258,4.01358 -26.8007,15.47338 l 2.1507,0.57627 c 3.0635,-10.29458 13.6177,-16.36462 24.0647,-13.86538 l 0.5853,-2.18427 z m 1.0753,0.28813 -0.5852,2.18428 c 10.2915,3.06261 16.3678,13.58706 13.8743,24.03112 l 2.1843,0.58528 c 2.8075,-11.61209 -4.0133,-23.42595 -15.4734,-26.80068 z m -28.1641,16.26057 c -2.8173,11.61708 3.9992,23.45806 15.4644,26.83429 l 0.5852,-2.18428 c -10.3,-3.06001 -16.3989,-13.62364 -13.8989,-24.07373 l -2.1507,-0.57628 z m 41.1651,11.03017 c -3.0591,10.29702 -13.593,16.4022 -24.0401,13.90798 l -0.5853,2.18427 c 11.6174,2.80873 23.4412,-4.0374 26.8097,-15.50698 l -2.1843,-0.58527 z"
       id="path6497"
       inkscape:connector-curvature="0" />
    <g
       style="font-size:25.64992905px;font-style:normal;font-variant:normal;font-weight:normal;font-stretch:normal;text-align:center;line-height:125%;letter-spacing:0px;word-spacing:0px;text-anchor:middle;fill:#323232;fill-opacity:1;stroke:none;font-family:Tahoma;-inkscape-font-specification:Tahoma"
       id="text5366"
       transform="translate(203.75022,-422.40411)">
      <path
         d="m 966.72412,937.18503 c 0.18838,0.0172 0.40651,0.0301 0.6544,0.0388 0.24787,0.009 0.54271,0.0129 0.88453,0.0129 2.00076,0 3.48425,-0.50449 4.45046,-1.51349 0.96619,-1.00899 1.44929,-2.40246 1.44931,-4.1804 -2e-5,-1.86404 -0.46172,-3.27486 -1.38512,-4.23246 -0.92342,-0.95758 -2.38551,-1.43638 -4.38627,-1.43639 -0.27346,10e-6 -0.55552,0.004 -0.84618,0.0129 -0.29068,0.009 -0.56439,0.0299 -0.82113,0.0638 z m 11.56861,-5.64223 c -2e-5,1.53894 -0.23941,2.88126 -0.71819,4.02697 -0.47882,1.14573 -1.15852,2.09471 -2.03913,2.84695 -0.88063,0.75225 -1.95368,1.3165 -3.21915,1.69275 -1.2655,0.37625 -2.68493,0.56438 -4.25829,0.56438 -0.71807,0 -1.5559,-0.0299 -2.51349,-0.0896 -0.9576,-0.0598 -1.89823,-0.18382 -2.8219,-0.37221 l 0,-17.31339 c 0.92367,-0.17114 1.8857,-0.2866 2.88609,-0.34637 1.00038,-0.0597 1.8596,-0.0896 2.57767,-0.0896 1.5217,2e-5 2.90252,0.17092 4.14244,0.51272 1.2399,0.34183 2.30447,0.88037 3.19372,1.61564 0.88921,0.7353 1.57322,1.6758 2.05204,2.82151 0.47878,1.14573 0.71817,2.5225 0.71819,4.13031 z"
         style="font-weight:bold;writing-mode:lr-tb;font-family:Ubuntu;-inkscape-font-specification:Ubuntu Bold"
         id="path3139"
         inkscape:connector-curvature="0" />
      <path
         d="m 981.60935,922.66771 4.00153,0 0,17.77522 -4.00153,0 z"
         style="font-weight:bold;writing-mode:lr-tb;font-family:Ubuntu;-inkscape-font-specification:Ubuntu Bold"
         id="path3141"
         inkscape:connector-curvature="0" />
      <path
         d="m 994.57364,937.3909 c 0.56412,0 1.03,-0.0471 1.39765,-0.14129 0.36763,-0.0942 0.66261,-0.22244 0.88492,-0.38474 0.2223,-0.16229 0.37625,-0.35459 0.46184,-0.5769 0.0856,-0.2223 0.12836,-0.47044 0.12837,-0.74442 -10e-6,-0.58133 -0.27372,-1.0643 -0.82113,-1.44891 -0.54742,-0.3846 -1.4878,-0.79921 -2.82111,-1.24383 -0.58187,-0.2056 -1.16347,-0.44082 -1.7448,-0.70567 -0.58135,-0.26483 -1.10281,-0.59816 -1.56438,-0.99999 -0.46158,-0.40182 -0.8377,-0.88922 -1.12837,-1.46223 -0.29067,-0.57297 -0.436,-1.2699 -0.436,-2.09078 0,-0.82086 0.15381,-1.56045 0.46144,-2.21878 0.30763,-0.65829 0.74364,-1.21824 1.30802,-1.67983 0.56437,-0.46156 1.24839,-0.81641 2.05204,-1.06457 0.80364,-0.24812 1.70983,-0.37219 2.71857,-0.37221 1.19712,2e-5 2.23181,0.12839 3.10409,0.38513 0.87226,0.25676 1.59041,0.53882 2.15461,0.84617 l -1.15461,3.15536 c -0.49577,-0.25673 -1.04711,-0.48334 -1.65401,-0.67983 -0.60692,-0.19647 -1.33803,-0.2947 -2.19333,-0.29472 -0.9576,2e-5 -1.64579,0.13243 -2.06456,0.39726 -0.41879,0.26485 -0.62818,0.67098 -0.62818,1.21839 0,0.32512 0.0768,0.59883 0.23053,0.82113 0.15368,0.22232 0.37168,0.42323 0.65401,0.60273 0.28231,0.17953 0.60729,0.34195 0.97494,0.48728 0.36764,0.14534 0.77376,0.29498 1.21839,0.44892 0.92314,0.34182 1.72679,0.67946 2.41094,1.01291 0.68413,0.33347 1.25269,0.72251 1.70568,1.16711 0.4529,0.44463 0.7906,0.96621 1.0129,1.56477 0.2223,0.59857 0.3334,1.32524 0.3335,2.18002 -10e-5,1.65896 -0.5814,2.94584 -1.74406,3.86064 -1.1627,0.9148 -2.91532,1.3722 -5.2579,1.37221 -0.78695,-10e-6 -1.49679,-0.0471 -2.12953,-0.1413 -0.63275,-0.0942 -1.19269,-0.20965 -1.67983,-0.34637 -0.48715,-0.13673 -0.90607,-0.28206 -1.25675,-0.43601 -0.35068,-0.15394 -0.64579,-0.29928 -0.88531,-0.436 l 1.12876,-3.18041 c 0.53019,0.29067 1.18433,0.55147 1.96241,0.78238 0.77807,0.23092 1.73149,0.34638 2.86025,0.34638 z"
         style="font-weight:bold;writing-mode:lr-tb;font-family:Ubuntu;-inkscape-font-specification:Ubuntu Bold"
         id="path3143"
         inkscape:connector-curvature="0" />
      <path
         d="m 1012.7598,940.80223 c -2.89,-10e-6 -5.0917,-0.80378 -6.605,-2.41134 -1.5134,-1.60755 -2.2701,-3.89025 -2.2701,-6.84809 0,-1.47109 0.231,-2.78367 0.6928,-3.93775 0.4618,-1.15405 1.0946,-2.12874 1.8982,-2.92405 0.8037,-0.79528 1.7613,-1.39815 2.8728,-1.8086 1.1115,-0.41041 2.317,-0.61563 3.6164,-0.61565 0.7525,2e-5 1.4365,0.0556 2.0521,0.16673 0.6155,0.11117 1.1541,0.23955 1.616,0.38513 0.4618,0.14561 0.8465,0.29525 1.1542,0.44892 0.3076,0.1537 0.53,0.27333 0.6673,0.3589 l -1.1546,3.23207 c -0.5474,-0.29066 -1.1845,-0.53866 -1.9111,-0.74403 -0.7267,-0.20533 -1.5516,-0.308 -2.4748,-0.30802 -0.6158,2e-5 -1.2186,0.10269 -1.8086,0.30802 -0.5899,0.20537 -1.1115,0.53465 -1.5647,0.98787 -0.4533,0.45323 -0.8166,1.03888 -1.09,1.75693 -0.2735,0.71808 -0.4102,1.59008 -0.4102,2.61603 0,0.82088 0.09,1.58617 0.2693,2.29588 0.1795,0.70972 0.4701,1.32106 0.872,1.83403 0.4018,0.51299 0.9275,0.91912 1.5773,1.21839 0.6496,0.29929 1.4363,0.44893 2.36,0.44892 0.5813,10e-6 1.1028,-0.0342 1.5644,-0.10254 0.4616,-0.0684 0.872,-0.14964 1.2313,-0.24383 0.3593,-0.0942 0.6756,-0.20117 0.9491,-0.32094 0.2734,-0.11976 0.5213,-0.23079 0.7436,-0.33307 l 1.103,3.20624 c -0.5642,0.34181 -1.3592,0.64957 -2.3851,0.92328 -1.026,0.27371 -2.2145,0.41056 -3.5656,0.41057 z"
         style="font-weight:bold;writing-mode:lr-tb;font-family:Ubuntu;-inkscape-font-specification:Ubuntu Bold"
         id="path3145"
         inkscape:connector-curvature="0" />
      <path
         d="m 1024.647,931.5428 c 0,0.87201 0.1069,1.65857 0.3206,2.35967 0.2137,0.70111 0.5214,1.30384 0.9233,1.8082 0.4018,0.50438 0.8935,0.89341 1.4751,1.16712 0.5816,0.27371 1.2484,0.41057 2.0004,0.41056 0.7352,10e-6 1.3979,-0.13685 1.9878,-0.41056 0.59,-0.27371 1.0858,-0.66274 1.4877,-1.16712 0.4018,-0.50436 0.7097,-1.10709 0.9237,-1.8082 0.2139,-0.7011 0.3209,-1.48766 0.3209,-2.35967 0,-0.87253 -0.107,-1.66352 -0.3209,-2.37298 -0.214,-0.70945 -0.5219,-1.31649 -0.9237,-1.82113 -0.4019,-0.50461 -0.8977,-0.89365 -1.4877,-1.16711 -0.5899,-0.27344 -1.2526,-0.41016 -1.9878,-0.41018 -0.752,2e-5 -1.4188,0.14105 -2.0004,0.42309 -0.5816,0.28208 -1.0733,0.67529 -1.4751,1.17964 -0.4019,0.50438 -0.7096,1.11142 -0.9233,1.82113 -0.2137,0.70972 -0.3206,1.49223 -0.3206,2.34754 z m 13.5686,0 c 0,1.52171 -0.2265,2.85973 -0.6794,4.01406 -0.453,1.15433 -1.0728,2.1204 -1.8595,2.89822 -0.7867,0.77782 -1.723,1.36346 -2.809,1.75693 -1.086,0.39348 -2.2531,0.59021 -3.5013,0.59022 -1.2139,-10e-6 -2.3594,-0.19674 -3.4368,-0.59022 -1.0774,-0.39347 -2.0179,-0.97911 -2.8215,-1.75693 -0.8037,-0.77782 -1.4364,-1.74389 -1.8982,-2.89822 -0.4619,-1.15433 -0.6928,-2.49235 -0.6928,-4.01406 0,-1.52223 0.2394,-2.86051 0.7182,-4.01485 0.4788,-1.15432 1.1243,-2.1247 1.9366,-2.91114 0.8122,-0.78641 1.7527,-1.37636 2.8215,-1.76985 1.0687,-0.39345 2.1931,-0.59019 3.373,-0.59021 1.2143,2e-5 2.3602,0.19676 3.4375,0.59021 1.0774,0.39349 2.0179,0.98344 2.8215,1.76985 0.8037,0.78644 1.4363,1.75682 1.8979,2.91114 0.4615,1.15434 0.6923,2.49262 0.6923,4.01485 z"
         style="font-weight:bold;writing-mode:lr-tb;font-family:Ubuntu;-inkscape-font-specification:Ubuntu Bold"
         id="path3147"
         inkscape:connector-curvature="0" />
      <path
         d="m 1046.8105,940.44293 c -0.7014,-1.48779 -1.394,-3.03533 -2.0779,-4.64263 -0.6839,-1.60729 -1.3337,-3.19762 -1.9495,-4.771 -0.6158,-1.57337 -1.1843,-3.07825 -1.7057,-4.51465 -0.5213,-1.43638 -0.9701,-2.71869 -1.3463,-3.84694 l 4.4117,0 c 0.3418,1.02597 0.7136,2.1332 1.1154,3.3217 0.4019,1.18852 0.8123,2.37273 1.2313,3.55262 0.4191,1.17991 0.8252,2.3084 1.2184,3.38549 0.3932,1.0771 0.761,2.00913 1.1034,2.79607 0.3245,-0.78694 0.6877,-1.71897 1.0896,-2.79607 0.4018,-1.07709 0.8122,-2.20558 1.2313,-3.38549 0.419,-1.17989 0.8294,-2.3641 1.2313,-3.55262 0.4018,-1.1885 0.7736,-2.29573 1.1154,-3.3217 l 4.2583,0 c -0.3935,1.12825 -0.8467,2.41056 -1.3597,3.84694 -0.5129,1.4364 -1.0772,2.94128 -1.6927,4.51465 -0.6155,1.57338 -1.2654,3.16371 -1.9495,4.771 -0.6842,1.6073 -1.3767,3.15484 -2.0775,4.64263 z"
         style="font-weight:bold;writing-mode:lr-tb;font-family:Ubuntu;-inkscape-font-specification:Ubuntu Bold"
         id="path3149"
         inkscape:connector-curvature="0" />
      <path
         d="m 1060.0621,940.44293 0,-17.77522 12.0046,0 0,3.35966 -8.0031,0 0,3.48882 7.1052,0 0,3.28296 -7.1052,0 0,4.28333 8.5933,0 0,3.36045 z"
         style="font-weight:bold;writing-mode:lr-tb;font-family:Ubuntu;-inkscape-font-specification:Ubuntu Bold"
         id="path3151"
         inkscape:connector-curvature="0" />
      <path
         d="m 1080.7993,922.46262 c 2.6677,2e-5 4.7112,0.47451 6.1307,1.42347 1.4194,0.949 2.1291,2.42388 2.1291,4.42463 0,1.24828 -0.2865,2.26145 -0.8595,3.03951 -0.573,0.77809 -1.398,1.38943 -2.4751,1.83404 0.359,0.44462 0.7352,0.9533 1.1284,1.52602 0.3932,0.57273 0.7822,1.17116 1.1671,1.79529 0.3848,0.62414 0.7568,1.27397 1.1158,1.9495 0.3591,0.67553 0.6925,1.33815 1.0004,1.98785 l -4.4892,0 c -0.3246,-0.58134 -0.6536,-1.17129 -0.9871,-1.76985 -0.3334,-0.59856 -0.6755,-1.18003 -1.0262,-1.74441 -0.3507,-0.56438 -0.6969,-1.09875 -1.0387,-1.60312 -0.3418,-0.50436 -0.6839,-0.96163 -1.0262,-1.37181 l -1.975,0 0,6.48919 -4.0015,0 0,-17.51926 c 0.8725,-0.17062 1.7747,-0.29013 2.7064,-0.35851 0.9318,-0.0683 1.7653,-0.10252 2.5006,-0.10254 z m 0.2309,3.41133 c -0.2907,10e-6 -0.5515,0.008 -0.7824,0.0254 -0.2309,0.017 -0.4489,0.0341 -0.654,0.0513 l 0,4.82189 1.1288,0 c 1.505,10e-6 2.5823,-0.18799 3.2321,-0.56399 0.6496,-0.37598 0.9745,-1.01721 0.9745,-1.92367 0,-0.872 -0.3292,-1.49182 -0.9875,-1.85948 -0.6583,-0.36763 -1.6288,-0.55145 -2.9115,-0.55146 z"
         style="font-weight:bold;writing-mode:lr-tb;font-family:Ubuntu;-inkscape-font-specification:Ubuntu Bold"
         id="path3153"
         inkscape:connector-curvature="0" />
      <path
         d="m 1099.1913,929.97803 c 0.7181,-1.21433 1.402,-2.42854 2.0517,-3.64264 0.6497,-1.21406 1.2482,-2.43662 1.7957,-3.66768 l 4.4117,0 c -0.9748,1.9152 -1.9838,3.7705 -3.027,5.56591 -1.0432,1.79543 -2.1461,3.59933 -3.3088,5.41171 l 0,6.7976 -4.0015,0 0,-6.74594 c -1.1627,-1.81238 -2.2698,-3.62489 -3.3213,-5.43754 -1.0516,-1.81263 -2.0647,-3.67654 -3.0395,-5.59174 l 4.6426,0 c 0.5469,1.23106 1.1367,2.45362 1.7695,3.66768 0.6327,1.2141 1.3084,2.42831 2.0269,3.64264 z"
         style="font-weight:bold;writing-mode:lr-tb;font-family:Ubuntu;-inkscape-font-specification:Ubuntu Bold"
         id="path3155"
         inkscape:connector-curvature="0" />
    </g>
    <g
       style="font-size:18.8929081px;font-style:normal;font-variant:normal;font-weight:normal;font-stretch:normal;text-align:center;line-height:125%;letter-spacing:0px;word-spacing:0px;text-anchor:middle;fill:#323232;fill-opacity:1;stroke:none;font-family:Tahoma;-inkscape-font-specification:Tahoma"
       id="text5370"
       transform="translate(203.75022,-422.40411)">
      <path
         d="m 967.14254,948.23254 c 1.85115,2e-5 3.2302,0.35268 4.13715,1.058 0.90693,0.70534 1.36039,1.70665 1.36041,3.00391 -2e-5,0.74339 -0.13224,1.37636 -0.39668,1.89892 -0.26446,0.52257 -0.64231,0.94451 -1.13353,1.26585 -0.49124,0.32134 -1.0927,0.55437 -1.80436,0.69908 -0.71168,0.14473 -1.51455,0.21709 -2.40861,0.21708 l -1.7764,0 0,5.0634 -1.28458,0 0,-12.84704 c 0.45356,-0.12606 0.98573,-0.21745 1.59651,-0.27415 0.61077,-0.0567 1.1808,-0.085 1.71009,-0.0851 z m 0.0565,1.1145 c -0.47855,2e-5 -0.88474,0.0158 -1.21857,0.0473 -0.33383,0.0315 -0.62048,0.06 -0.85995,0.0853 l 0,5.78123 1.62477,0 c 0.69302,1e-5 1.31975,-0.0409 1.88018,-0.12281 0.56041,-0.0819 1.03896,-0.23302 1.43565,-0.45347 0.39667,-0.22043 0.70205,-0.52592 0.91616,-0.91645 0.21409,-0.39052 0.32114,-0.8879 0.32115,-1.49215 -1e-5,-0.57963 -0.11648,-1.05837 -0.3494,-1.43623 -0.23294,-0.37783 -0.5415,-0.67697 -0.92568,-0.89742 -0.38419,-0.22043 -0.8219,-0.37476 -1.31313,-0.46298 -0.49124,-0.0882 -0.99496,-0.13231 -1.51118,-0.13233 z"
         style="font-weight:300;letter-spacing:6.21203136px;writing-mode:lr-tb;font-family:Ubuntu Light;-inkscape-font-specification:'Ubuntu Light, Light'"
         id="path3130"
         inkscape:connector-curvature="0" />
      <path
         d="m 990.03289,961.43878 c -0.23948,-0.64229 -0.46626,-1.25941 -0.68035,-1.85135 -0.2141,-0.59194 -0.42186,-1.17139 -0.62326,-1.73835 l -6.36702,0 c -0.2141,0.56696 -0.4282,1.14641 -0.6423,1.73835 -0.2141,0.59194 -0.43454,1.20906 -0.66132,1.85135 l -1.34109,0 c 0.50354,-1.36031 0.97574,-2.62933 1.41662,-3.80706 0.44088,-1.17773 0.87235,-2.29242 1.29439,-3.34408 0.42205,-1.05165 0.84083,-2.06237 1.25634,-3.03216 0.41551,-0.96978 0.85639,-1.93956 1.32264,-2.90935 l 1.13353,0 c 0.46586,0.96979 0.90664,1.93957 1.32236,2.90935 0.41569,0.96979 0.83447,1.98051 1.25633,3.03216 0.42185,1.05166 0.85321,2.16635 1.2941,3.34408 0.44087,1.17773 0.91961,2.44675 1.43623,3.80706 z m -4.49664,-11.61895 c -0.47855,1.08318 -0.94134,2.18519 -1.38837,3.30603 -0.44703,1.12085 -0.91001,2.3301 -1.38894,3.62775 l 5.57366,0 c -0.47856,-1.29765 -0.94462,-2.5069 -1.39817,-3.62775 -0.45358,-1.12084 -0.91963,-2.22285 -1.39818,-3.30603 z"
         style="font-weight:300;letter-spacing:6.21203136px;writing-mode:lr-tb;font-family:Ubuntu Light;-inkscape-font-specification:'Ubuntu Light, Light'"
         id="path3132"
         inkscape:connector-curvature="0" />
      <path
         d="m 1007.857,948.34613 0,1.1145 -4.194,0 0,11.97815 -1.2851,0 0,-11.97815 -4.19399,0 0,-1.1145 z"
         style="font-weight:300;letter-spacing:6.21203136px;writing-mode:lr-tb;font-family:Ubuntu Light;-inkscape-font-specification:'Ubuntu Light, Light'"
         id="path3134"
         inkscape:connector-curvature="0" />
      <path
         d="m 1024.5135,948.34613 1.2846,0 0,13.09265 -1.2846,0 0,-6.29148 -7.1039,0 0,6.29148 -1.2846,0 0,-13.09265 1.2846,0 0,5.68666 7.1039,0 z"
         style="font-weight:300;letter-spacing:6.21203136px;writing-mode:lr-tb;font-family:Ubuntu Light;-inkscape-font-specification:'Ubuntu Light, Light'"
         id="path3136"
         inkscape:connector-curvature="0" />
    </g>
    <path
       style="color:#000000;fill:#323232;fill-opacity:1;stroke:none;stroke-width:1;marker:none;visibility:visible;display:inline;overflow:visible;enable-background:accumulate"
       d="m 1133.3507,505.39444 c -0.1773,-0.01 -0.3426,0.006 -0.5478,0.0322 -2.0238,0.26607 -1.2245,2.41674 -1.2245,2.41674 l 0.2256,-0.0322 c 0,0.25771 0.01,0.53206 0.032,0.74113 0.032,0.26107 0.1598,0.52302 0.3544,0.77335 l -0.3222,1.32115 c -0.3098,-0.0911 -0.5478,-0.0645 -0.5478,-0.0645 l -0.064,0.0323 c -0.3269,-0.49188 -2.0165,-0.79926 -2.8034,-0.64447 -1.7746,0.34915 -3.2549,6.44669 -2.5456,11.02033 0.1894,0.17143 2.4368,0.55948 3.0934,0.45112 0.094,0.22433 0.1835,0.44148 0.29,0.61224 -0.4193,1.96812 -0.6767,4.99459 -0.6767,4.99459 0,0 -3.3761,5.87712 -3.8023,6.34797 -0.027,0.0294 -0.027,0.0687 -0.032,0.0966 -0.337,0.41814 -0.6598,0.86014 -0.3867,1.03114 0.1907,0.11951 1.4688,1.03956 2.6423,1.38559 1.0151,0.29917 1.9573,0.04 2.0945,-0.12889 0.1451,-0.17785 -0.8653,-0.35161 -1.7078,-1.12782 -0.1961,-0.18061 -0.375,-0.36604 -0.5478,-0.54779 0.081,-0.11179 3.6497,-5.05727 3.9957,-5.25237 0.6331,-0.68706 1.2247,-3.23363 1.5467,-4.83348 0.8231,1.28645 1.8621,2.87498 2.5456,3.64122 0.1728,1.0076 0.6036,2.73519 1.0312,4.28568 l -1.3534,3.89901 0.4189,0.12889 1.16,-3.28677 c 0.2715,0.95505 0.5522,1.87292 0.6445,2.15895 -0.1031,0.56228 -0.1842,1.14309 0.1289,1.16004 0.4048,0.0217 4.6777,-0.061 4.769,-0.5478 0.064,-0.34067 -1.8727,-1.01041 -3.3512,-1.19225 -0.1588,-1.11633 -0.3902,-3.7786 -0.6767,-5.86461 l 2.8357,-8.12025 c 0.2837,-0.0299 0.5187,-0.15735 0.6122,-0.45112 0.069,-0.21724 -0.055,-0.41736 -0.2578,-0.58002 l 0.1933,-0.5478 -0.4511,-0.12888 -0.1611,0.4189 c -0.5358,-0.25439 -1.1923,-0.38668 -1.1923,-0.38668 -0.8914,-1.33313 -3.3834,-2.35229 -3.3834,-2.35229 l -0.8378,-2.64231 c -0.01,-1.31371 -0.4607,-2.48701 -1.2245,-2.64229 -0.01,-0.006 -0.026,0.006 -0.032,0 l 0.1611,-0.61224 c 0.1409,0.0111 0.2856,0.0259 0.4189,0 0.9142,-0.17793 0.8837,-1.32952 0.7412,-2.80342 -10e-4,-0.01 10e-4,-0.0222 0,-0.0322 l 1.5789,-0.16112 c 0,0 -0.3507,-0.23115 -1.3856,-0.19333 -0.1693,-0.77659 -0.7569,-1.70134 -1.9978,-1.77228 z m 1.2567,11.9548 c 0.2224,0.46875 2.4716,1.58602 4.2857,2.32006 l 0.032,-0.0645 c 0.2585,0.29094 0.7111,0.54475 1.16,0.64446 l -2.5134,7.18576 c -0.098,-0.58305 -0.1861,-1.06861 -0.29,-1.32115 -0.4869,-1.18416 -2.9402,-5.57514 -3.029,-5.73572 0.1439,-0.85243 0.2758,-1.95749 0.3545,-3.02898 z"
       id="path3263"
       inkscape:connector-curvature="0" />
    <path
       inkscape:transform-center-x="-5.4972135"
       inkscape:transform-center-y="-22.341636"
       sodipodi:nodetypes="cccc"
       inkscape:connector-curvature="0"
       id="rect6509"
       d="m 1139.7028,493.40264 1.0706,5.31208 -4.6539,-1.24704 z"
       style="color:#000000;fill:#323232;fill-opacity:1;fill-rule:nonzero;stroke:none;stroke-width:1;marker:none;visibility:visible;display:inline;overflow:visible;enable-background:accumulate" />
    <path
       inkscape:transform-center-x="5.4972115"
       style="color:#000000;fill:#323232;fill-opacity:1;fill-rule:nonzero;stroke:none;stroke-width:1;marker:none;visibility:visible;display:inline;overflow:visible;enable-background:accumulate"
       d="m 1124.9505,548.45911 -1.0707,-5.31209 4.6539,1.24705 z"
       id="path6512"
       inkscape:connector-curvature="0"
       sodipodi:nodetypes="cccc"
       inkscape:transform-center-y="22.341604" />
    <path
       inkscape:transform-center-x="-22.341643"
       style="color:#000000;fill:#323232;fill-opacity:1;fill-rule:nonzero;stroke:none;stroke-width:1;marker:none;visibility:visible;display:inline;overflow:visible;enable-background:accumulate"
       d="m 1159.8549,528.30705 -5.3121,1.07066 1.247,-4.65395 z"
       id="path6514"
       inkscape:connector-curvature="0"
       sodipodi:nodetypes="cccc"
       inkscape:transform-center-y="5.4971943" />
    <path
       inkscape:transform-center-x="22.341607"
       inkscape:transform-center-y="-5.4972257"
       sodipodi:nodetypes="cccc"
       inkscape:connector-curvature="0"
       id="path6516"
       d="m 1104.7984,513.5547 5.3121,-1.07066 -1.247,4.65394 z"
       style="color:#000000;fill:#323232;fill-opacity:1;fill-rule:nonzero;stroke:none;stroke-width:1;marker:none;visibility:visible;display:inline;overflow:visible;enable-background:accumulate" />
    <text
       xml:space="preserve"
       style="font-size:16.93346596px;font-style:normal;font-variant:normal;font-weight:normal;font-stretch:normal;text-align:center;line-height:125%;letter-spacing:0px;word-spacing:0px;text-anchor:middle;fill:#323232;fill-opacity:1;stroke:none;font-family:Tahoma;-inkscape-font-specification:Tahoma"
       x="1007.6003"
       y="661.82214"
       id="text6682"
       sodipodi:linespacing="125%"><tspan
         sodipodi:role="line"
         id="tspan6684"
         x="1007.6003"
         y="661.82214"
         style="font-size:16.93346596px;font-style:normal;font-variant:normal;font-weight:normal;font-stretch:normal;text-align:center;line-height:125%;writing-mode:lr-tb;text-anchor:middle;font-family:Orbitron;-inkscape-font-specification:Orbitron">X-Drive</tspan></text>
    <g
       style="font-size:17.97838211px;font-style:normal;font-variant:normal;font-weight:normal;font-stretch:normal;text-align:center;line-height:125%;letter-spacing:0px;word-spacing:0px;text-anchor:middle;fill:#323232;fill-opacity:1;stroke:none;font-family:Tahoma;-inkscape-font-specification:Tahoma"
       id="text3971"
       transform="translate(-240.41631,0)">
      <path
         d="m 769.19694,952.98316 2.30107,0 0,0.26993 -5.21334,6.20257 5.21334,6.20201 0,0.26994 -2.30107,0 -4.17088,-4.96205 -4.17089,4.96205 -2.30162,0 0,-0.26994 5.19578,-6.20201 -5.19578,-6.20257 0,-0.26993 2.30162,0 4.17089,4.96205 z"
         style="line-height:125%;writing-mode:lr-tb;fill:#323232;font-family:Orbitron;-inkscape-font-specification:Orbitron"
         id="path3114"
         inkscape:connector-curvature="0" />
      <path
         d="m 780.58651,959.63507 0,1.94169 -7.19179,0 0,-1.94169 z"
         style="line-height:125%;writing-mode:lr-tb;fill:#323232;font-family:Orbitron;-inkscape-font-specification:Orbitron"
         id="path3116"
         inkscape:connector-curvature="0" />
      <path
         d="m 782.68238,952.98316 10.60718,0 c 0.64703,10e-6 1.19834,0.2277 1.65392,0.68307 0.45556,0.4554 0.68334,1.0068 0.68335,1.6542 l 0,8.2699 c -1e-5,0.64742 -0.22779,1.19882 -0.68335,1.6542 -0.45558,0.45539 -1.00689,0.68308 -1.65392,0.68308 l -10.60718,0 z m 11.00276,10.60717 0,-8.2699 c -1e-5,-0.10789 -0.039,-0.20079 -0.11687,-0.27871 -0.0779,-0.0779 -0.17082,-0.11686 -0.27871,-0.11687 l -8.27045,0 c -0.10791,10e-6 -0.20082,0.039 -0.27872,0.11687 -0.0779,0.0779 -0.11687,0.17082 -0.11687,0.27871 l 0,8.2699 c 0,0.10791 0.039,0.20082 0.11687,0.27872 0.0779,0.0779 0.17081,0.11687 0.27872,0.11687 l 8.27045,0 c 0.10789,0 0.20079,-0.039 0.27871,-0.11687 0.0779,-0.0779 0.11686,-0.17081 0.11687,-0.27872 z"
         style="line-height:125%;writing-mode:lr-tb;fill:#323232;font-family:Orbitron;-inkscape-font-specification:Orbitron"
         id="path3118"
         inkscape:connector-curvature="0" />
      <path
         d="m 799.90526,955.50039 5.82509,0 0,1.9417 -5.82509,0 c -0.10791,10e-6 -0.20081,0.0389 -0.27872,0.11659 -0.0779,0.0777 -0.11687,0.17055 -0.11686,0.27844 l 0,8.09049 -1.9417,0 0,-2.33728 0,-5.75321 c 0,-0.64704 0.22769,-1.19826 0.68308,-1.65365 0.45538,-0.45538 1.00678,-0.68307 1.6542,-0.68308 z"
         style="line-height:125%;writing-mode:lr-tb;fill:#323232;font-family:Orbitron;-inkscape-font-specification:Orbitron"
         id="path3120"
         inkscape:connector-curvature="0" />
      <path
         d="m 806.76786,965.92761 0,-10.42722 1.94169,0 0,10.42722 z m 0,-13.84315 1.94169,0 0,1.94169 -1.94169,0 z"
         style="line-height:125%;writing-mode:lr-tb;fill:#323232;font-family:Orbitron;-inkscape-font-specification:Orbitron"
         id="path3123"
         inkscape:connector-curvature="0" />
      <path
         d="m 821.15089,955.50039 2.22974,0 -5.75321,10.42722 -1.9417,0 -5.75321,-10.42722 2.2473,0 4.47649,8.23369 z"
         style="line-height:125%;writing-mode:lr-tb;fill:#323232;font-family:Orbitron;-inkscape-font-specification:Orbitron"
         id="path3125"
         inkscape:connector-curvature="0" />
      <path
         d="m 832.92781,955.50039 c 0.6474,10e-6 1.1988,0.2277 1.6542,0.68308 0.45537,0.45539 0.68307,1.00661 0.68308,1.65365 l 0,3.84773 -8.66549,0 0,1.90548 c 0,0.10791 0.0389,0.20082 0.11687,0.27872 0.0779,0.0779 0.17081,0.11687 0.27871,0.11687 l 8.26991,0 0,1.94169 -8.26991,0 c -0.64705,0 -1.19836,-0.22769 -1.65392,-0.68308 -0.45557,-0.45538 -0.68335,-1.00678 -0.68335,-1.6542 l 0,-5.75321 c 0,-0.64704 0.22778,-1.19826 0.68335,-1.65365 0.45556,-0.45538 1.00687,-0.68307 1.65392,-0.68308 z m -6.32821,4.24276 6.72379,0 0,-1.90603 c -10e-6,-0.10789 -0.039,-0.20071 -0.11686,-0.27844 -0.0779,-0.0777 -0.17083,-0.11658 -0.27872,-0.11659 l -5.93263,0 c -0.1079,10e-6 -0.20081,0.0389 -0.27871,0.11659 -0.0779,0.0777 -0.11687,0.17055 -0.11687,0.27844 z"
         style="line-height:125%;writing-mode:lr-tb;fill:#323232;font-family:Orbitron;-inkscape-font-specification:Orbitron"
         id="path3127"
         inkscape:connector-curvature="0" />
    </g>
    <path
       style="color:#000000;fill:#323232;fill-opacity:1;stroke:none;stroke-width:0.09999999;marker:none;visibility:visible;display:inline;overflow:visible;enable-background:accumulate"
       d="m 1021.0151,601.51843 -0.099,0.94391 4.7196,0.59615 0.6955,7.20353 -2.1611,0.62099 -0.8445,0.22356 0.2981,0.81971 0.8445,2.28526 -21.859,6.48317 -2.161,-5.26602 c 0.752,-0.55572 1.2079,-1.28175 1.7636,-1.71395 0.6707,-0.52163 1.807,-0.98987 1.863,-1.3165 0.093,-0.54362 -0.789,-0.7618 -1.7636,-0.59616 -0.8534,0.14504 -2.45917,1.76363 -4.27247,2.38462 -1.5773,0.54017 -4.19796,0.0742 -3.9992,1.73878 0.1827,1.53011 4.27544,0.4635 5.58894,-0.0497 l 2.35983,5.8125 -3.25406,2.48398 c -2.1478,-2.24462 -5.16705,-3.65145 -8.52003,-3.65145 -6.51777,0 -11.79888,5.28111 -11.79888,11.79888 0,6.51778 5.28111,11.82372 11.79888,11.82372 6.51777,0 11.79889,-5.30594 11.79889,-11.82372 0,-0.13313 -0.02,-0.26537 -0.025,-0.39743 l 2.2356,-0.19872 c 0.4246,0.62854 1.1467,1.04327 1.9623,1.04327 1.305,0 2.3598,-1.05479 2.3598,-2.35978 0,-0.14685 8e-4,-0.30768 -0.025,-0.44711 l 17.2138,-12.34536 1.4408,3.94952 c -4.0999,1.84857 -6.9552,5.96521 -6.9552,10.75561 0,6.51779 5.2811,11.82372 11.7989,11.82372 6.5178,0 11.7989,-5.30593 11.7989,-11.82372 0,-6.51771 -5.2811,-11.79888 -11.7989,-11.79888 -1.1667,0 -2.2891,0.15674 -3.3534,0.47196 l -3.254,-8.81811 1.0681,-0.29808 0.025,0.14904 0.944,-0.0994 -0.8943,-9.33974 -0.025,-0.3726 -0.3974,-0.0497 -5.117,-0.64583 z m 4.0241,14.18349 0.1242,0.3726 -17.4624,12.51923 c -0.4103,-0.34361 -0.9381,-0.57131 -1.5152,-0.57131 -0.1903,0 -0.3692,0.032 -0.5465,0.0745 l -2.4343,-5.91186 21.8342,-6.48318 z m -34.82535,7.42709 c 2.51682,0 4.80006,0.99932 6.45833,2.63301 l -5.14182,3.94952 c -0.40117,-0.20334 -0.83598,-0.34776 -1.31651,-0.34776 -1.63364,0 -2.95593,1.32229 -2.95593,2.95593 0,1.63365 1.32229,2.95593 2.95593,2.95593 1.50619,0 2.74627,-1.12733 2.93109,-2.58333 l 6.25962,-0.54648 c 7.9e-4,0.0581 0,0.11552 0,0.17388 0,5.08331 -4.1074,9.21555 -9.19071,9.21555 -5.08331,0 -9.21554,-4.13224 -9.21554,-9.21555 0,-5.08331 4.13223,-9.1907 9.21554,-9.1907 z m 41.80525,0 c 5.0833,0 9.1907,4.10742 9.1907,9.1907 0,5.08337 -4.1074,9.21555 -9.1907,9.21555 -5.0833,0 -9.2155,-4.13218 -9.2155,-9.21555 0,-3.67688 2.1708,-6.82587 5.2909,-8.29647 l 2.1859,5.91186 c -0.744,0.53723 -1.2172,1.39685 -1.2172,2.38461 0,1.63365 1.3223,2.95593 2.9559,2.95593 1.6337,0 2.956,-1.32228 2.956,-2.95593 0,-1.63364 -1.3223,-2.95593 -2.956,-2.95593 -0.085,0 -0.1653,0.0179 -0.2484,0.0248 l -2.1859,-5.91186 c 0.7774,-0.21231 1.59,-0.34775 2.4343,-0.34775 z m -29.2363,0.47195 1.9871,4.91827 c -0.5698,0.43141 -0.9439,1.118 -0.9439,1.88782 0,0.13765 0.027,0.26624 0.05,0.39744 l -1.9375,0.17388 c -0.2167,-1.92774 -0.9066,-3.70936 -1.9375,-5.24119 -0.004,-0.006 0,-0.0191 0,-0.0248 l 2.7821,-2.11138 z m -4.86863,3.72596 c 0.7432,1.14483 1.24447,2.45264 1.41587,3.875 l -6.20994,0.54648 c -0.0417,-0.2126 -0.11414,-0.40253 -0.19872,-0.59616 l 4.99279,-3.82532 z"
       id="path3126"
       inkscape:connector-curvature="0" />
    <path
       inkscape:connector-curvature="0"
       style="color:#000000;fill:#323232;fill-opacity:1;fill-rule:nonzero;stroke:none;stroke-width:1.20000005;marker:none;visibility:visible;display:inline;overflow:visible;enable-background:accumulate"
       d="m 557.20869,900.64343 c -25.6406,0 -46.4375,20.76566 -46.4375,46.40625 l 92.84375,0 c 0,-25.64059 -20.76566,-46.40625 -46.40625,-46.40625 z m -38.9375,71.71875 c 8.2814,12.71784 22.62955,21.125 38.9375,21.125 16.304,0 30.62392,-8.41232 38.90625,-21.125 l -77.84375,0 z"
       id="path3969"
       inkscape:export-filename="D:\Dima\UMI_market\Sport\Brands\xd.png"
       inkscape:export-xdpi="90"
       inkscape:export-ydpi="90" />
    <path
       inkscape:connector-curvature="0"
       id="path3975"
       d="m 566.85952,904.99678 -0.0971,0.92177 4.60885,0.58216 0.67918,7.03453 -2.11036,0.60642 -0.82473,0.21832 0.29108,0.80048 0.82473,2.23165 -21.34616,6.33107 -2.11034,-5.14248 c 0.73437,-0.54268 1.17958,-1.25167 1.72224,-1.67374 0.65493,-0.50939 1.76462,-0.96664 1.81927,-1.28561 0.091,-0.53087 -0.77047,-0.74393 -1.72224,-0.58218 -0.83337,0.14164 -2.40145,1.72226 -4.17221,2.32868 -1.5403,0.5275 -4.09947,0.0725 -3.90538,1.69799 0.17841,1.49421 4.17514,0.45262 5.45782,-0.0486 l 2.30442,5.67615 -3.17766,2.4257 c -2.09742,-2.19196 -5.04584,-3.56579 -8.32015,-3.56579 -6.36486,0 -11.52207,5.15722 -11.52207,11.52207 0,6.36488 5.15722,11.54634 11.52207,11.54634 6.36485,0 11.52207,-5.18146 11.52207,-11.54634 0,-0.13 -0.02,-0.25914 -0.0242,-0.3881 l 2.18314,-0.19406 c 0.41465,0.61379 1.11981,1.0188 1.91629,1.0188 1.27437,0 2.30443,-1.03005 2.30443,-2.30442 0,-0.1434 7.6e-4,-0.30047 -0.0242,-0.43662 l 16.81003,-12.05574 1.40691,3.85687 c -4.00371,1.8052 -6.79196,5.82527 -6.79196,10.50327 0,6.36489 5.15722,11.54634 11.52207,11.54634 6.36486,0 11.52207,-5.18145 11.52207,-11.54634 0,-6.3648 -5.15722,-11.52207 -11.52207,-11.52207 -1.1393,0 -2.23544,0.15307 -3.27469,0.46089 l -3.17767,-8.61124 1.04304,-0.29108 0.0242,0.14554 0.92176,-0.0971 -0.87325,-9.12063 -0.0242,-0.36385 -0.38812,-0.0486 -4.99695,-0.63068 z m 3.92963,13.85074 0.1213,0.36386 -17.05267,12.22553 c -0.4007,-0.33555 -0.91616,-0.55791 -1.47968,-0.55791 -0.18585,0 -0.36053,0.0312 -0.53366,0.0728 l -2.37718,-5.77317 21.32189,-6.33108 z m -34.00829,7.25285 c 2.45777,0 4.68743,0.97587 6.30681,2.57124 l -5.0212,3.85686 c -0.39176,-0.19857 -0.81637,-0.3396 -1.28561,-0.3396 -1.59533,0 -2.8866,1.29127 -2.8866,2.88659 0,1.59532 1.29128,2.88658 2.8866,2.88658 1.47084,0 2.68183,-1.10089 2.86231,-2.52273 l 6.11277,-0.53366 c 7.7e-4,0.0567 0,0.11281 0,0.16981 0,4.96405 -4.01104,8.99935 -8.97509,8.99935 -4.96406,0 -8.99934,-4.0353 -8.99934,-8.99935 0,-4.96406 4.03529,-8.97509 8.99934,-8.97509 z m 40.82451,0 c 4.96406,0 8.9751,4.01106 8.9751,8.97509 0,4.96411 -4.01104,8.99935 -8.9751,8.99935 -4.96406,0 -8.99935,-4.03524 -8.99935,-8.99935 0,-3.59063 2.11985,-6.66574 5.16674,-8.10184 l 2.13463,5.77317 c -0.7265,0.52463 -1.18859,1.36407 -1.18859,2.32867 0,1.59532 1.29126,2.88658 2.88657,2.88658 1.59532,0 2.88659,-1.29126 2.88659,-2.88658 0,-1.59532 -1.29128,-2.88659 -2.88659,-2.88659 -0.0829,0 -0.1615,0.0175 -0.24256,0.0242 l -2.13463,-5.77316 c 0.7591,-0.20734 1.55262,-0.3396 2.37719,-0.3396 z m -28.55048,0.46088 1.94056,4.80288 c -0.55646,0.4213 -0.92176,1.09178 -0.92176,1.84354 0,0.13442 0.0264,0.25999 0.0486,0.38812 l -1.89204,0.16979 c -0.21165,-1.88251 -0.88541,-3.62234 -1.89206,-5.11823 -0.004,-0.006 0.004,-0.0187 0,-0.0242 l 2.71679,-2.06185 z m -4.75438,3.63855 c 0.72577,1.11797 1.21529,2.39509 1.38266,3.78409 l -6.06425,0.53365 c -0.0407,-0.20761 -0.11147,-0.39308 -0.19405,-0.58217 l 4.87564,-3.73557 z"
       style="color:#000000;fill:#f8f8f8;fill-opacity:1;stroke:none;stroke-width:0.09999999;marker:none;visibility:visible;display:inline;overflow:visible;enable-background:accumulate"
       inkscape:export-filename="D:\Dima\UMI_market\Sport\Brands\xd.png"
       inkscape:export-xdpi="90"
       inkscape:export-ydpi="90" />
    <path
       style="color:#000000;fill:#323232;fill-opacity:1;stroke:none;stroke-width:0.1;marker:none;visibility:visible;display:inline;overflow:visible;enable-background:accumulate"
       d="m 62.196238,909.14681 c -1.040826,0.39066 -1.951948,3.64354 -0.910903,4.42443 1.041026,0.78071 2.342328,-1.43141 2.342328,-1.43141 0,0 8.588571,0.39015 9.75973,1.04096 0.684715,0.38016 3.079505,0.95545 5.335311,1.69168 -0.181138,0.23359 -0.536549,0.42243 -0.650646,0.65073 1.476604,0.0819 3.145936,0.4396 4.034029,0.78069 0.09791,0.0659 0.175302,0.19333 0.260256,0.26027 -5.045491,3.21152 -7.378497,7.59978 -9.109083,9.2392 -1.748271,1.65632 -4.944932,3.77381 -4.944932,3.77381 0,0 0.499782,0.93987 1.431435,1.95206 -1.264315,1.4484 -2.998229,4.10011 -2.212204,7.15697 0.585594,2.27726 3.139392,4.71726 6.50649,6.89701 0.04735,0.029 0.08253,0.10001 0.129883,0.12918 1.943566,2.3479 4.065121,4.38647 5.725711,5.33542 1.424681,0 2.413154,-0.49116 3.253239,-1.04117 0.694248,0.27075 1.413012,0.68399 2.082071,0.91098 -2.139789,1.87302 -4.294285,12.23222 -4.294285,12.23222 0,0 -2.12767,1.25897 -1.951938,2.40734 0.191129,1.24888 1.440118,1.30013 2.732728,2.40744 -0.132812,2.1244 4.447138,4.44821 5.009972,2.53742 0.471047,-1.59896 -3.359934,-3.18413 -3.318292,-5.13998 0.05035,-2.45201 3.123067,-7.93778 4.294286,-9.62966 0.520513,2.92827 1.254034,7.05536 1.431416,12.49239 0.415177,1.09491 -1.328768,2.44301 -1.041026,3.77381 0.285233,1.31922 2.580394,1.42782 3.708711,2.27715 1.096586,0.82537 3.402935,2.13169 4.034019,1.75693 2.303235,-1.37217 -2.835914,-2.52993 -2.927932,-5.33531 -0.02488,-0.7804 -1.287065,-2.38546 -0.39018,-12.88284 0.09911,-1.15976 0.375603,-8.92299 -2.992994,-13.27328 -1.003848,-1.29654 -3.877449,-4.96415 -5.205177,-7.28716 0,0 -0.367281,-0.35109 -0.39019,-1.04117 -0.008,-0.31182 0.118344,-0.77291 0.260267,-1.17115 0.01658,-0.043 -0.01659,-0.0859 0,-0.12929 1.141894,-1.1034 4.047167,-2.91467 5.855823,-4.03397 0.449867,-0.14007 1.17117,-0.39025 1.17117,-0.39025 l 0.780789,2.99301 c 0,0 0.591548,-0.58238 0.780768,-0.78079 0.664884,1.8914 1.385627,3.98952 1.951959,4.94495 0.729924,1.2313 2.47246,3.38346 3.773752,5.20513 1.30131,1.82187 7.807771,8.97905 8.588561,9.49947 0.78099,0.52054 2.21221,3.64374 2.21221,3.64374 0,0 2.34233,0.26026 2.34233,-1.17116 0,-1.43171 -2.86286,-3.90399 -2.86286,-3.90399 0,0 -3.25324,-4.16396 -3.90388,-5.33531 -0.65066,-1.17105 -5.640231,-7.34481 -6.376361,-9.36929 -0.46735,-1.28505 -0.43483,-5.04038 -1.041035,-9.10912 0,-0.56539 -0.008,-3.4485 -0.910903,-6.37628 0.168219,0 0.281078,0.025 0.520513,0 -0.62446,3.12599 8.708946,1.89929 10.019986,-1.04117 1.88494,-4.2269 0.52052,-8.06695 -3.90389,-8.4584 -0.8296,-0.074 -1.646,0.017 -2.34233,0.26026 -0.0417,0.015 -0.0903,-0.017 -0.12989,0 -3.392732,-0.58447 -7.024912,-0.25387 -8.198158,2.21232 -0.34521,0.72514 0.54549,1.17235 1.691681,1.5614 l -1.561558,-0.39006 c 0,0 -0.995596,-0.6616 -2.212204,-1.17125 -0.105425,-0.049 -0.150365,-0.0819 -0.260267,-0.12918 -2.794971,-1.25527 -7.026982,-2.47258 -7.026982,-2.47258 0,0 -0.2232,0.23779 -0.260277,0.26027 -1.831975,-0.67459 -3.667857,-1.39375 -4.944921,-1.5615 -1.032503,-0.13388 -11.84222,-7e-4 -11.84222,-7e-4 0,0 -2.86286,-1.04207 -3.903886,-0.65062 z"
       id="path3454"
       inkscape:connector-curvature="0"
       sodipodi:nodetypes="csccccccscccccccccccscccccccsccccccccccsccscccccccccccccccccccc"
       inkscape:export-filename="D:\Dima\UMI_market\Sport\Brands\RealExtreme.png"
       inkscape:export-xdpi="90"
       inkscape:export-ydpi="90" />
    <path
       style="color:#000000;fill:#323232;fill-opacity:1;stroke:none;stroke-width:0.1;marker:none;visibility:visible;display:inline;overflow:visible;enable-background:accumulate"
       d="m 107.05977,977.62318 c -0.1969,-0.12675 -0.39781,-0.0899 -0.714,-0.0845 l -7.497811,-1.15253 -25.17555,-8.36489 -6.919775,-3.33972 c -0.734399,-0.38829 -1.500499,0.40184 -0.444771,1.3392 l 6.563853,4.41132 0.401446,0.1351 0.313821,1.29424 c -0.32693,0.21213 -0.625637,0.54008 -0.757704,0.93737 -0.307071,0.92469 0.148524,1.83377 1.073019,2.14135 0.924418,0.30682 1.967145,-0.1169 2.274779,-1.02924 0.09794,-0.29804 0.05374,-0.60638 -8.02e-4,-0.89229 l 1.248445,-1.07193 16.471204,5.47284 0.358532,1.60572 c -0.214482,0.19859 -0.436657,0.41993 -0.534781,0.7143 -0.307049,0.92436 0.282228,1.87841 1.206961,2.18556 0.924418,0.30703 1.833756,-0.14854 2.140848,-1.0729 0.13184,-0.3974 0.09025,-0.84084 -0.0455,-1.20508 l 1.025515,-0.84863 7.853671,0.0823 c 1.71907,0.0455 1.74888,-0.86164 1.15902,-1.25047 z"
       id="path3464"
       inkscape:connector-curvature="0"
       inkscape:export-filename="D:\Dima\UMI_market\Sport\Brands\RealExtreme.png"
       inkscape:export-xdpi="90"
       inkscape:export-ydpi="90" />
    <text
       xml:space="preserve"
       style="font-size:12px;font-style:normal;font-variant:normal;font-weight:normal;font-stretch:normal;text-align:center;line-height:125%;letter-spacing:0px;word-spacing:0px;text-anchor:middle;fill:#323232;fill-opacity:1;stroke:none;font-family:Tahoma;-inkscape-font-specification:Tahoma"
       x="138.02083"
       y="950.44257"
       id="text3059"
       sodipodi:linespacing="125%"
       inkscape:export-filename="D:\Dima\UMI_market\Sport\Brands\RealExtreme.png"
       inkscape:export-xdpi="90"
       inkscape:export-ydpi="90"><tspan
         sodipodi:role="line"
         x="138.02083"
         y="950.44257"
         id="tspan3063"
         style="text-align:start;text-anchor:start;fill:#323232;fill-opacity:1">REAL</tspan></text>
    <path
       inkscape:connector-curvature="0"
       id="path3084"
       style="font-size:24.94568253px;font-style:normal;font-variant:normal;font-weight:normal;font-stretch:normal;text-align:center;line-height:125%;letter-spacing:0px;word-spacing:0px;writing-mode:lr-tb;text-anchor:middle;fill:#323232;fill-opacity:1;stroke:none;font-family:Neucha;-inkscape-font-specification:Neucha"
       d="m 113.78388,973.37075 0.24361,1.09625 c -0.6334,0 -1.78242,0.0284 -3.44708,0.0853 -1.66468,0.0568 -2.87055,0.0853 -3.61761,0.0853 -1.20182,0 -2.02197,-0.0568 -2.46047,-0.17053 0.16241,-1.78647 0.25985,-4.77476 0.29233,-8.96486 0.0325,-4.19008 0.13805,-7.1134 0.3167,-8.76996 0.55218,0.0487 2.0179,0.0893 4.39716,0.1218 2.37925,0.0325 3.9343,0.10558 4.66514,0.21925 l 0.26797,1.09625 c -0.73084,0.12994 -2.1925,0.28423 -4.38499,0.46286 -2.19249,0.17866 -3.34558,0.2761 -3.45926,0.29233 0.0162,0.37355 0.0528,1.13686 0.10962,2.28993 0.0568,1.1531 0.0934,2.10318 0.10963,2.85024 0.55218,0.065 1.5591,0.15836 3.02077,0.28016 1.46165,0.12181 2.38737,0.19895 2.77715,0.23142 l 0.24361,1.12061 c -3.42679,0.30858 -5.43251,0.47099 -6.01717,0.48722 0,0.7146 -0.0122,1.79866 -0.0365,3.2522 -0.0244,1.45354 -0.0366,2.52137 -0.0365,3.20347 3.71911,0.34106 6.05776,0.58467 7.01597,0.73083 z"
       inkscape:export-filename="D:\Dima\UMI_market\Sport\Brands\RealExtreme.png"
       inkscape:export-xdpi="90"
       inkscape:export-ydpi="90" />
    <path
       inkscape:connector-curvature="0"
       id="path3086"
       style="font-size:24.94568253px;font-style:normal;font-variant:normal;font-weight:normal;font-stretch:normal;text-align:center;line-height:125%;letter-spacing:0px;word-spacing:0px;writing-mode:lr-tb;text-anchor:middle;fill:#323232;fill-opacity:1;stroke:none;font-family:Neucha;-inkscape-font-specification:Neucha"
       d="m 114.26541,981.29433 -1.81032,-0.92623 c 0.72973,-1.7121 1.56473,-3.3891 2.50499,-5.03105 0.94025,-1.64191 2.23134,-3.71889 3.87327,-6.23092 1.64194,-2.512 2.65937,-4.07675 3.05231,-4.69424 -0.70169,-1.09461 -2.14012,-3.20666 -4.31533,-6.33616 -2.1752,-3.12947 -3.79609,-5.57834 -4.86265,-7.3466 l 1.76825,-0.79992 c 2.3857,2.77868 5.37485,6.77826 8.96746,11.99874 0.14033,-0.53326 1.36827,-2.39974 3.68383,-5.59942 2.31553,-3.19964 3.6417,-5.09416 3.97853,-5.6836 0.42099,-0.70165 0.9262,-1.0525 1.51562,-1.05253 0.56134,3e-5 1.06654,0.24561 1.51564,0.73677 0.44905,0.49121 0.68761,1.05956 0.71571,1.70508 -0.1685,0.1965 -1.6209,2.20331 -4.35744,6.02043 -2.73656,3.81715 -4.44164,6.11865 -5.11524,6.90452 0.95426,1.48759 2.77864,4.06275 5.4731,7.72551 2.69443,3.66277 4.39249,6.09761 5.09419,7.3045 -1e-5,0.53327 -0.13341,0.94024 -0.39994,1.22092 -0.26666,0.28066 -0.61049,0.42101 -1.03148,0.42101 -0.95431,0 -1.68405,-0.46312 -2.18923,-1.38934 L 123.696,967.35895 c -0.8701,1.40337 -2.39975,3.64874 -4.58898,6.73613 -2.18926,3.0874 -3.80313,5.48715 -4.84161,7.19925 z"
       inkscape:export-filename="D:\Dima\UMI_market\Sport\Brands\RealExtreme.png"
       inkscape:export-xdpi="90"
       inkscape:export-ydpi="90" />
    <path
       inkscape:connector-curvature="0"
       id="path3088"
       style="font-size:24.94568253px;font-style:normal;font-variant:normal;font-weight:normal;font-stretch:normal;text-align:center;line-height:125%;letter-spacing:0px;word-spacing:0px;writing-mode:lr-tb;text-anchor:middle;fill:#323232;fill-opacity:1;stroke:none;font-family:Neucha;-inkscape-font-specification:Neucha"
       d="m 133.74154,958.12076 -0.24361,-1.09625 9.30591,-0.53594 c 0.40601,0.0163 0.74706,0.16242 1.02317,0.4385 0.27608,0.2761 0.41412,0.57656 0.41413,0.90135 -1e-5,0.21115 -0.0812,0.39792 -0.24361,0.56031 -0.16241,0.16242 -0.40602,0.25986 -0.73083,0.29233 l -4.09265,-0.21925 c 0.40601,5.73297 0.70646,10.94622 0.90136,15.63977 -0.14617,0.48722 -0.42226,0.73083 -0.82828,0.73083 -0.29233,0 -0.57654,-0.11774 -0.85263,-0.35323 -0.2761,-0.23549 -0.44662,-0.52376 -0.51158,-0.86482 0.0325,-0.87699 0.0487,-2.20873 0.0487,-3.9952 0,-0.66587 -0.004,-1.66467 -0.0122,-2.99641 -0.008,-1.33173 -0.0122,-2.33053 -0.0122,-2.9964 -1e-5,-1.93263 0.0325,-3.6785 0.0974,-5.23762 -1.8352,-0.12991 -3.25625,-0.21924 -4.26318,-0.26797 z"
       inkscape:export-filename="D:\Dima\UMI_market\Sport\Brands\RealExtreme.png"
       inkscape:export-xdpi="90"
       inkscape:export-ydpi="90" />
    <path
       inkscape:connector-curvature="0"
       id="path3090"
       style="font-size:24.94568253px;font-style:normal;font-variant:normal;font-weight:normal;font-stretch:normal;text-align:center;line-height:125%;letter-spacing:0px;word-spacing:0px;writing-mode:lr-tb;text-anchor:middle;fill:#323232;fill-opacity:1;stroke:none;font-family:Neucha;-inkscape-font-specification:Neucha"
       d="m 157.56782,974.85677 0.38978,0.99881 c -0.73085,-0.0163 -1.49416,-0.25174 -2.28994,-0.70647 -0.7958,-0.45474 -1.53881,-1.02723 -2.22903,-1.71746 -0.69024,-0.69022 -1.30738,-1.38857 -1.85144,-2.09504 -0.54407,-0.70647 -1.01099,-1.40076 -1.40076,-2.08287 l -1.92452,-0.21925 c 0.0325,1.18557 0.0974,3.02889 0.19489,5.52995 -0.14617,0.50346 -0.43038,0.75519 -0.85264,0.75519 -0.29233,0 -0.57248,-0.11774 -0.84045,-0.35323 -0.26797,-0.23549 -0.43444,-0.52376 -0.4994,-0.86482 0.0487,-1.36421 0.1015,-4.01956 0.15834,-7.96605 0.0568,-3.94647 0.13399,-6.99972 0.23143,-9.15974 l 1.09625,-0.29233 c 0,0.51971 0.008,0.81205 0.0244,0.87699 0.92572,-0.61713 2.22497,-0.9257 3.89776,-0.92572 1.80271,2e-5 3.15068,0.56438 4.04393,1.69309 0.89323,1.12875 1.33985,2.70815 1.33986,4.73822 -10e-6,0.74708 -0.0893,1.46573 -0.26797,2.15595 -0.17866,0.69024 -0.44257,1.33581 -0.79174,1.9367 -0.34918,0.60091 -0.83234,1.09625 -1.44948,1.48602 -0.61715,0.38979 -1.32362,0.61716 -2.11941,0.68211 0.56842,1.18558 1.33173,2.33866 2.28994,3.45927 0.95819,1.12061 1.90827,1.81083 2.85024,2.07068 z m -9.57388,-15.66413 0.19489,7.60064 c 0.89323,0.48723 1.92451,0.73084 3.09385,0.73083 1.1206,1e-5 2.07067,-0.42225 2.85024,-1.26677 0.77954,-0.84451 1.16931,-1.87579 1.16932,-3.09385 -1e-5,-1.31549 -0.40602,-2.50105 -1.21805,-3.55671 -0.81204,-1.05563 -1.82708,-1.58345 -3.04512,-1.58347 -0.99069,2e-5 -2.00573,0.38979 -3.04513,1.16933 z"
       inkscape:export-filename="D:\Dima\UMI_market\Sport\Brands\RealExtreme.png"
       inkscape:export-xdpi="90"
       inkscape:export-ydpi="90" />
    <path
       inkscape:connector-curvature="0"
       id="path3092"
       style="font-size:24.94568253px;font-style:normal;font-variant:normal;font-weight:normal;font-stretch:normal;text-align:center;line-height:125%;letter-spacing:0px;word-spacing:0px;writing-mode:lr-tb;text-anchor:middle;fill:#323232;fill-opacity:1;stroke:none;font-family:Neucha;-inkscape-font-specification:Neucha"
       d="m 168.50591,973.37075 0.24361,1.09625 c -0.63339,0 -1.78242,0.0284 -3.44708,0.0853 -1.66467,0.0568 -2.87054,0.0853 -3.61761,0.0853 -1.20181,0 -2.02197,-0.0568 -2.46046,-0.17053 0.1624,-1.78647 0.25985,-4.77476 0.29233,-8.96486 0.0325,-4.19008 0.13804,-7.1134 0.31669,-8.76996 0.55218,0.0487 2.0179,0.0893 4.39717,0.1218 2.37925,0.0325 3.93429,0.10558 4.66513,0.21925 l 0.26797,1.09625 c -0.73084,0.12994 -2.1925,0.28423 -4.38498,0.46286 -2.1925,0.17866 -3.34558,0.2761 -3.45927,0.29233 0.0162,0.37355 0.0528,1.13686 0.10963,2.28993 0.0568,1.1531 0.0934,2.10318 0.10962,2.85024 0.55218,0.065 1.5591,0.15836 3.02077,0.28016 1.46165,0.12181 2.38737,0.19895 2.77716,0.23142 l 0.24361,1.12061 c -3.42679,0.30858 -5.43251,0.47099 -6.01718,0.48722 0,0.7146 -0.0122,1.79866 -0.0365,3.2522 -0.0244,1.45354 -0.0365,2.52137 -0.0365,3.20347 3.71911,0.34106 6.05777,0.58467 7.01597,0.73083 z"
       inkscape:export-filename="D:\Dima\UMI_market\Sport\Brands\RealExtreme.png"
       inkscape:export-xdpi="90"
       inkscape:export-ydpi="90" />
    <path
       inkscape:connector-curvature="0"
       id="path3094"
       style="font-size:24.94568253px;font-style:normal;font-variant:normal;font-weight:normal;font-stretch:normal;text-align:center;line-height:125%;letter-spacing:0px;word-spacing:0px;writing-mode:lr-tb;text-anchor:middle;fill:#323232;fill-opacity:1;stroke:none;font-family:Neucha;-inkscape-font-specification:Neucha"
       d="m 187.55623,974.467 -1.85143,0.17053 c -0.89326,-5.60303 -1.85958,-10.40215 -2.89897,-14.39737 -0.53595,1.26679 -1.12467,3.0492 -1.76617,5.34725 -0.64152,2.29806 -1.08407,3.78814 -1.32767,4.47024 -0.0325,1e-5 -0.0853,0.004 -0.15835,0.0122 -0.0731,0.008 -0.134,0.0122 -0.18271,0.0122 -0.22738,10e-6 -0.60091,-0.0244 -1.12061,-0.0731 -0.51971,-0.0487 -0.85264,-0.0731 -0.9988,-0.0731 -0.0163,-0.47098 -0.43038,-2.04226 -1.24241,-4.71386 -0.81204,-2.67158 -1.29926,-4.38091 -1.46166,-5.12799 -0.29234,2.631 -1.42918,7.42199 -3.41054,14.373 l -1.51039,-0.14617 c 0.22737,-1.77023 0.78768,-4.5555 1.68091,-8.35583 0.89324,-3.8003 1.42106,-6.73986 1.58347,-8.81869 0.29233,-0.0325 0.52782,-0.0487 0.70647,-0.0487 0.1624,2e-5 0.76331,0.065 1.80272,0.19489 0.22736,0.0325 0.55623,0.76739 0.98662,2.20467 0.43037,1.43732 0.86481,3.01672 1.30331,4.73822 0.43849,1.72152 0.71458,2.73656 0.82828,3.04513 0.45473,-1.1206 1.00285,-2.93955 1.64436,-5.45687 0.6415,-2.51729 1.09218,-4.117 1.35204,-4.79912 0.25984,0.0163 1.07999,0.0893 2.46046,0.21925 0.42225,1.64032 0.83232,3.41055 1.23024,5.3107 0.39788,1.90017 0.82825,4.06018 1.29113,6.48003 0.46284,2.41987 0.81608,4.2307 1.0597,5.43251 z"
       inkscape:export-filename="D:\Dima\UMI_market\Sport\Brands\RealExtreme.png"
       inkscape:export-xdpi="90"
       inkscape:export-ydpi="90" />
    <path
       inkscape:connector-curvature="0"
       id="path3096"
       style="font-size:24.94568253px;font-style:normal;font-variant:normal;font-weight:normal;font-stretch:normal;text-align:center;line-height:125%;letter-spacing:0px;word-spacing:0px;writing-mode:lr-tb;text-anchor:middle;fill:#323232;fill-opacity:1;stroke:none;font-family:Neucha;-inkscape-font-specification:Neucha"
       d="m 197.83658,973.37075 0.24361,1.09625 c -0.63339,0 -1.78242,0.0284 -3.44708,0.0853 -1.66467,0.0568 -2.87054,0.0853 -3.61761,0.0853 -1.20181,0 -2.02197,-0.0568 -2.46046,-0.17053 0.1624,-1.78647 0.25985,-4.77476 0.29233,-8.96486 0.0325,-4.19008 0.13804,-7.1134 0.31669,-8.76996 0.55218,0.0487 2.0179,0.0893 4.39717,0.1218 2.37925,0.0325 3.93429,0.10558 4.66513,0.21925 l 0.26797,1.09625 c -0.73084,0.12994 -2.1925,0.28423 -4.38498,0.46286 -2.1925,0.17866 -3.34558,0.2761 -3.45927,0.29233 0.0162,0.37355 0.0528,1.13686 0.10963,2.28993 0.0568,1.1531 0.0934,2.10318 0.10962,2.85024 0.55218,0.065 1.5591,0.15836 3.02077,0.28016 1.46165,0.12181 2.38737,0.19895 2.77716,0.23142 l 0.24361,1.12061 c -3.42679,0.30858 -5.43252,0.47099 -6.01718,0.48722 0,0.7146 -0.0122,1.79866 -0.0365,3.2522 -0.0244,1.45354 -0.0365,2.52137 -0.0365,3.20347 3.71911,0.34106 6.05776,0.58467 7.01597,0.73083 z"
       inkscape:export-filename="D:\Dima\UMI_market\Sport\Brands\RealExtreme.png"
       inkscape:export-xdpi="90"
       inkscape:export-ydpi="90" />
    <path
       style="color:#000000;fill:#323232;fill-opacity:1;stroke:none;stroke-width:0.1;marker:none;visibility:visible;display:inline;overflow:visible;enable-background:accumulate"
       d="m 526.6938,1200.7917 c 0,6.2561 -0.6374,17.9908 -11.8785,17.9908 -11.24104,0 -11.87847,-11.7347 -11.87846,-17.9907 -4e-5,-14.2323 1.3839,-23.5763 1.38387,-32.1865 -3e-5,-8.61 -1.3839,-16.4862 -1.38388,-27.7826 -5e-5,-6.4364 -0.1984,-20.2973 11.87847,-20.2973 12.0769,0 11.8785,13.861 11.8785,20.2972 0,10.9764 -1.3839,18.744 -1.3839,27.3798 0,8.6358 1.3839,18.1399 1.3839,32.5893 z"
       id="rect3108"
       inkscape:connector-curvature="0"
       sodipodi:nodetypes="szssszsss" />
    <path
       id="path3909"
       style="color:#000000;fill:#323232;fill-opacity:1;stroke:none;stroke-width:0.1;marker:none;visibility:visible;display:inline;overflow:visible;enable-background:accumulate"
       d="m 682.51932,1161.5532 c -7.34945,6.0845 -11.86776,8.7464 -24.02066,19.7643 -8.03478,7.2844 -15.55851,16.1127 -22.13525,22.0897 -7.0905,6.4438 -14.50685,13.1391 -30.3949,7.7299 -4.11737,-1.946 -6.06686,-3.3327 -5.93377,-7.1402 0.17806,2.0897 1.77824,4.1287 5.93377,5.5435 15.88805,5.4092 23.3044,-1.2861 30.3949,-7.7299 6.57674,-5.977 14.10047,-14.8053 22.13525,-22.0897 12.1529,-11.0178 16.67121,-13.6798 24.02066,-19.7643 0.73985,-0.6126 1.1393,-1.5165 0.97904,-2.4292 0.23815,1.4353 0.27914,2.7484 -0.97904,4.0259 z"
       inkscape:connector-curvature="0"
       sodipodi:nodetypes="cssccsssccc" />
    <path
       style="color:#000000;fill:#323232;fill-opacity:1;stroke:none;stroke-width:0.10000001;marker:none;visibility:visible;display:inline;overflow:visible;enable-background:accumulate"
       d="m 263.97942,1168.8721 c 0.002,0.015 0.002,0.034 0.004,0.049"
       id="path3962"
       inkscape:connector-curvature="0" />
    <path
       style="color:#000000;fill:#323232;fill-opacity:1;stroke:none;stroke-width:0.10000001;marker:none;visibility:visible;display:inline;overflow:visible;enable-background:accumulate"
       d="m 263.98295,1168.9205 c 0.0131,0.056 0.0334,0.1249 0.0385,0.1931"
       id="path3960"
       inkscape:connector-curvature="0" />
    <path
       id="path3954"
       style="color:#000000;fill:#ffffff;fill-opacity:1;stroke:none;stroke-width:0.10000001;marker:none;visibility:visible;display:inline;overflow:visible;enable-background:accumulate"
       d="m 645.8362,1189.4048 c 1.27299,-0.3195 2.66681,-0.8894 3.83667,-2.0524 0,0 0.52315,-4.2433 -2.78586,-6.0353 -2.43163,-1.3169 -8.33602,-1.7552 -9.57945,-3.9584 -1.79836,-3.1864 -1.91108,-6.4501 1.68618,-12.217 -0.56748,-3.3952 -5.04388,-4.8035 -8.43089,-4.6669 l -4e-5,6e-4 c -2.0322,0.082 -3.66846,0.7163 -3.83667,1.8325 -0.0869,0.577 -0.1447,1.1968 -0.19549,1.8815 l -0.68425,0.5864 c -0.20448,0.4785 -1.63831,3.8268 -1.73505,5.2778 -0.10399,1.5596 0.4347,4.5853 -0.29325,6.3529 -0.72797,1.7675 -3.43306,8.0651 -1.97943,10.0424 1.70259,2.3158 5.47397,2.2479 5.47397,2.2479 l 15.17561,2.2968 3.03023,-1.0262 z"
       inkscape:connector-curvature="0"
       sodipodi:nodetypes="ccsscccsccssscccc" />
    <path
       inkscape:connector-curvature="0"
       style="color:#000000;fill:#323232;fill-opacity:1;stroke:none;stroke-width:0.10000001;marker:none;visibility:visible;display:inline;overflow:visible;enable-background:accumulate"
       d="m 630.56281,1160.4754 c -2.0322,0.082 -3.66846,0.7163 -3.83667,1.8325 -0.0869,0.577 -0.1447,1.1968 -0.19549,1.8815 -7.9e-4,0.015 7.8e-4,0.034 0,0.049 -0.009,0.057 -0.0242,0.1271 -0.0244,0.1955 -0.004,1.1206 1.04098,3.6502 1.29518,5.9374 0.29415,2.6467 -3.08535,9.5469 -1.02637,11.8995 2.05898,2.3526 14.63798,4.5691 14.63798,4.5691 l 1.36849,2.3946 c 0.0494,0 0.0971,0.022 0.14663,0.024 l 2.8103,-0.2932 c 1.1508,-0.295 2.30024,-0.816 3.39679,-1.7104 0,0 -0.17963,-3.9673 -2.68811,-5.3999 -2.05918,-1.176 -8.3849,-2.0484 -9.62832,-4.2516 -1.79837,-3.1864 -1.42234,-6.6944 2.17492,-12.4614 -0.56748,-3.3951 -5.04388,-4.8035 -8.43089,-4.6669 z"
       id="path3912" />
    <path
       style="color:#000000;fill:#ffffff;fill-opacity:1;stroke:none;stroke-width:0.10000001;marker:none;visibility:visible;display:inline;overflow:visible;enable-background:accumulate"
       d="m 630.14738,1163.3097 c -2.0929,-0.023 -3.69005,2.0281 -3.69005,2.0281 l 0.26881,0.9529 c 0,0 1.2319,-2.0972 3.32349,-2.1746 2.96058,-0.1093 3.5525,1.7646 3.42123,3.3719 -0.11352,1.3898 -2.71027,6.7512 -1.41737,9.2605 -2.2047,0.6313 -4.71014,2.3215 -6.52478,5.962 l 1.58843,1.1728 c 1.92746,-3.4356 4.29923,-4.9122 6.25597,-5.5221 1.21007,1.2526 2.31191,1.8586 3.61673,2.1502 -1.18601,-0.2984 -2.00665,-0.9267 -3.15242,-2.2724 1.90197,-0.4831 3.29904,-0.171 3.29904,-0.171 0,0 -0.26536,-0.617 -0.46431,-1.0751 -0.68388,-0.4595 -2.21129,-0.7362 -4.00773,-0.3665 -1.006,-2.4237 1.10765,-7.3805 1.51512,-9.1628 1.35748,0.3795 3.15162,0.2795 4.0566,-1.0018 l 0.51319,-0.953 c -0.89937,1.3635 -2.92926,1.5555 -4.47204,1.2217 -0.0252,-1.8015 -1.26183,-3.3896 -4.12991,-3.4207 z m 6.52477,13.6832 c 0.0773,0.052 0.14061,0.1161 0.1955,0.171 -0.56259,-1.05 -0.43152,-0.7145 -0.1955,-0.171 z m 6.32928,3.714 c -5.49297,-0.2444 -7.30677,5.1556 -6.76915,6.5728 l 1.85724,0.4886 c 0,0 1.27618,-6.6216 6.4759,-6.6216 l -1.56399,-0.4398 z"
       id="path3922"
       inkscape:connector-curvature="0" />
    <path
       style="color:#000000;fill:#323232;fill-opacity:1;stroke:none;stroke-width:0.1;marker:none;visibility:visible;display:inline;overflow:visible;enable-background:accumulate"
       d="m 642.49818,1190.6554 2.91396,-1.1253 -3.29337,0.327 -1.38544,-2.4366 c 0,0 -12.57451,-2.2056 -14.63349,-4.5582 -2.05898,-2.3527 1.32364,-9.2635 1.02949,-11.9102 -0.29414,-2.6468 -1.65454,-5.6243 -1.21333,-6.3595 0,0 -1.69086,3.9068 -1.79486,5.4665 -0.10399,1.5595 0.41598,4.5747 -0.31197,6.3423 -0.72797,1.7675 -2.59986,7.278 -1.14395,9.2535 1.45592,1.9755 3.28755,2.0597 3.28755,2.0597 z"
       id="path3914"
       inkscape:connector-curvature="0"
       sodipodi:nodetypes="ccccsscssscc" />
    <path
       sodipodi:nodetypes="ccsscccsccssscccc"
       inkscape:connector-curvature="0"
       d="m 662.12659,1174.3295 c 1.01111,-0.2736 2.12641,-0.7439 3.0881,-1.6692 0,0 0.56913,-3.2988 -1.96118,-4.6195 -1.85941,-0.9704 -6.4774,-1.1888 -7.37108,-2.8704 -1.29251,-2.4323 -1.25906,-4.959 1.7799,-9.5015 -0.31859,-2.6192 -3.77952,-3.6187 -6.44312,-3.4433 l -5e-5,5e-4 c -1.59814,0.1055 -2.90615,0.6305 -3.07987,1.4988 -0.0898,0.4488 -0.15824,0.9303 -0.22373,1.4619 l -0.55897,0.4684 c -0.17838,0.375 -1.42888,2.9989 -1.55901,4.1253 -0.13956,1.2107 0.1699,3.544 -0.46751,4.9288 -0.63741,1.3845 -2.99591,6.3199 -1.92882,7.8223 1.24986,1.7595 4.21256,1.6295 4.21256,1.6295 l 11.82561,1.4683 2.41678,-0.8575 z"
       style="color:#000000;fill:#ffffff;fill-opacity:1;stroke:none;stroke-width:0.10000001;marker:none;visibility:visible;display:inline;overflow:visible;enable-background:accumulate"
       id="path3992" />
    <path
       id="path3994"
       d="m 651.21916,1152.2261 c -1.59814,0.1055 -2.90615,0.6305 -3.07987,1.4988 -0.0898,0.4488 -0.15824,0.9303 -0.22373,1.4619 -7.9e-4,0.012 -4.5e-4,0.027 -0.002,0.038 -0.009,0.043 -0.0238,0.099 -0.0264,0.1519 -0.0453,0.8685 0.6807,2.8071 0.79477,4.5744 0.13201,2.0448 -2.77835,7.4609 -1.25013,9.2417 1.52821,1.7807 11.31873,3.2402 11.31873,3.2402 l 0.98467,1.8273 c 0.0381,0.01 0.0752,0.016 0.11455,0.013 l 2.21677,-0.2849 c 0.91431,-0.2523 1.83596,-0.6795 2.73007,-1.3953 0,0 0.008,-3.0703 -1.90819,-4.129 -1.57232,-0.8689 -6.50481,-1.4151 -7.39848,-3.0968 -1.29252,-2.4322 -0.86633,-5.1583 2.17262,-9.7008 -0.31858,-2.6191 -3.77951,-3.6185 -6.44309,-3.4433 z"
       style="color:#000000;fill:#323232;fill-opacity:1;stroke:none;stroke-width:0.10000001;marker:none;visibility:visible;display:inline;overflow:visible;enable-background:accumulate"
       inkscape:connector-curvature="0" />
    <path
       id="path3996"
       d="m 650.78721,1154.4309 c -1.64185,0.025 -2.97209,1.6472 -2.97209,1.6472 l 0.17538,0.733 c 0,0 1.04526,-1.6505 2.68986,-1.7534 2.32786,-0.1454 2.72246,1.2945 2.55937,2.5426 -0.14098,1.0794 -2.37951,5.2871 -1.45844,7.205 -1.75406,0.5343 -3.78373,1.8954 -5.34406,4.7536 l 1.20295,0.8763 c 1.64122,-2.7018 3.55798,-3.8946 5.11664,-4.4073 0.90299,0.9457 1.74519,1.3927 2.75845,1.5919 -0.91975,-0.2069 -1.54041,-0.677 -2.38946,-1.6962 1.51091,-0.4134 2.59584,-0.2003 2.59584,-0.2003 0,0 -0.18524,-0.4726 -0.32427,-0.8236 -0.51962,-0.3418 -1.70817,-0.5248 -3.13201,-0.2017 -0.69908,-1.8574 1.14512,-5.7417 1.53153,-7.1311 1.05131,0.2662 2.46325,0.1521 3.22145,-0.8594 l 0.43842,-0.7491 c -0.75686,1.0749 -2.3573,1.2654 -3.55576,1.0384 0.0476,-1.3954 -0.86379,-2.6006 -3.1138,-2.5659 z m 4.61017,10.4688 c 0.0587,0.038 0.106,0.087 0.14704,0.1286 -0.40235,-0.802 -0.312,-0.5448 -0.14704,-0.1286 z m 4.82912,2.7482 c -4.30237,-0.077 -5.92772,4.1449 -5.55867,5.2318 l 1.43949,0.3407 c 0,0 1.24904,-5.1571 5.33033,-5.2639 l -1.21115,-0.3086 z"
       style="color:#000000;fill:#ffffff;fill-opacity:1;stroke:none;stroke-width:0.10000001;marker:none;visibility:visible;display:inline;overflow:visible;enable-background:accumulate"
       inkscape:connector-curvature="0" />
    <path
       sodipodi:nodetypes="ccccsscssscc"
       inkscape:connector-curvature="0"
       id="path3998"
       d="m 659.45984,1175.3672 2.32923,-0.9319 -2.5972,0.321 -0.99642,-1.8597 c 0,0 -9.78739,-1.4509 -11.3156,-3.2317 -1.52822,-1.7808 1.38498,-7.2053 1.25298,-9.2502 -0.13199,-2.0448 -1.08854,-4.3242 -0.71479,-4.9028 0,0 -1.47309,3.0619 -1.61298,4.2726 -0.13956,1.2107 0.15558,3.5364 -0.48182,4.921 -0.63741,1.3845 -2.31253,5.6929 -1.24359,7.1938 1.06898,1.501 2.50348,1.5286 2.50348,1.5286 z"
       style="color:#000000;fill:#323232;fill-opacity:1;stroke:none;stroke-width:0.1;marker:none;visibility:visible;display:inline;overflow:visible;enable-background:accumulate" />
    <path
       style="color:#000000;fill:#323232;fill-opacity:1;stroke:none;stroke-width:0.1;marker:none;visibility:visible;display:inline;overflow:visible;enable-background:accumulate"
       d="m 396.0054,963.22392 c 0,0 -65.04158,0.19335 -97.56391,0.31182 -4.08313,0.0149 -6.09701,2.29868 -6.09774,4.67724 31.5795,-0.1137 92.6095,-0.27717 92.6095,-0.27717 14.59007,-0.0509 7.74519,12.12002 -7.0332,19.33262 22.15018,-5.46697 36.50401,-24.10883 18.08535,-24.04451 z"
       id="path4000"
       inkscape:connector-curvature="0"
       inkscape:export-filename="D:\Dima\UMI_market\Sport\Brands\SnowPath.png"
       inkscape:export-xdpi="90"
       inkscape:export-ydpi="90" />
    <g
       id="g4008"
       transform="matrix(1,0,0,0.85992769,256.65601,321.58664)">
      <path
         sodipodi:nodetypes="csssscsssscc"
         inkscape:connector-curvature="0"
         id="path4004"
         d="m 248.80357,986.54508 c 0.21811,-4.68237 9.22177,-6.67126 9.22177,-10.60488 0,-4.44123 -8.25279,-5.183 -8.25279,-9.08091 0,-3.89792 8.25279,-8.57929 8.25279,-12.47721 0,-3.89796 -8.25279,-5.14722 -8.25279,-9.04515 0,-3.89793 8.20534,-12.47726 8.20534,-12.47726 0,0 -4.88173,8.57933 -4.88173,12.47726 0,3.89793 4.83436,5.14719 4.83436,9.04515 0,3.89792 -4.83436,8.57929 -4.83436,12.47721 0,3.89791 4.83436,4.63968 4.83436,9.08091 0,3.93362 -5.58532,5.72025 -5.80334,9.2903 z"
         style="color:#000000;fill:#ffffff;fill-opacity:1;stroke:none;stroke-width:0.1;marker:none;visibility:visible;display:inline;overflow:visible;enable-background:accumulate"
         inkscape:export-filename="D:\Dima\UMI_market\Sport\Brands\SeaDust.png"
         inkscape:export-xdpi="90"
         inkscape:export-ydpi="90" />
      <path
         inkscape:export-ydpi="90"
         inkscape:export-xdpi="90"
         inkscape:export-filename="D:\Dima\UMI_market\Sport\Brands\SeaDust.png"
         style="color:#000000;fill:#ffffff;fill-opacity:1;stroke:none;stroke-width:0.1;marker:none;visibility:visible;display:inline;overflow:visible;enable-background:accumulate"
         d="m 267.51503,986.54508 c -0.21811,-4.68237 -9.22177,-6.67126 -9.22177,-10.60488 0,-4.44123 8.25279,-5.183 8.25279,-9.08091 0,-3.89792 -8.25279,-8.57929 -8.25279,-12.47721 0,-3.89796 8.25279,-5.14722 8.25279,-9.04515 0,-3.89793 -8.20534,-12.47726 -8.20534,-12.47726 0,0 4.88173,8.57933 4.88173,12.47726 0,3.89793 -4.83436,5.14719 -4.83436,9.04515 0,3.89792 4.83436,8.57929 4.83436,12.47721 0,3.89791 -4.83436,4.63968 -4.83436,9.08091 0,3.93362 5.58532,5.72025 5.80334,9.2903 z"
         id="path4006"
         inkscape:connector-curvature="0"
         sodipodi:nodetypes="csssscsssscc" />
    </g>
    <g
       transform="matrix(1,0,0,-0.85992769,256.65601,2017.1323)"
       id="g4012">
      <path
         inkscape:export-ydpi="90"
         inkscape:export-xdpi="90"
         inkscape:export-filename="D:\Dima\UMI_market\Sport\Brands\SeaDust.png"
         style="color:#000000;fill:#ffffff;fill-opacity:1;stroke:none;stroke-width:0.1;marker:none;visibility:visible;display:inline;overflow:visible;enable-background:accumulate"
         d="m 248.80357,986.54508 c 0.21811,-4.68237 9.22177,-6.67126 9.22177,-10.60488 0,-4.44123 -8.25279,-5.183 -8.25279,-9.08091 0,-3.89792 8.25279,-8.57929 8.25279,-12.47721 0,-3.89796 -8.25279,-5.14722 -8.25279,-9.04515 0,-3.89793 8.20534,-12.47726 8.20534,-12.47726 0,0 -4.88173,8.57933 -4.88173,12.47726 0,3.89793 4.83436,5.14719 4.83436,9.04515 0,3.89792 -4.83436,8.57929 -4.83436,12.47721 0,3.89791 4.83436,4.63968 4.83436,9.08091 0,3.93362 -5.58532,5.72025 -5.80334,9.2903 z"
         id="path4014"
         inkscape:connector-curvature="0"
         sodipodi:nodetypes="csssscsssscc" />
      <path
         sodipodi:nodetypes="csssscsssscc"
         inkscape:connector-curvature="0"
         id="path4016"
         d="m 267.51503,986.54508 c -0.21811,-4.68237 -9.22177,-6.67126 -9.22177,-10.60488 0,-4.44123 8.25279,-5.183 8.25279,-9.08091 0,-3.89792 -8.25279,-8.57929 -8.25279,-12.47721 0,-3.89796 8.25279,-5.14722 8.25279,-9.04515 0,-3.89793 -8.20534,-12.47726 -8.20534,-12.47726 0,0 4.88173,8.57933 4.88173,12.47726 0,3.89793 -4.83436,5.14719 -4.83436,9.04515 0,3.89792 4.83436,8.57929 4.83436,12.47721 0,3.89791 -4.83436,4.63968 -4.83436,9.08091 0,3.93362 5.58532,5.72025 5.80334,9.2903 z"
         style="color:#000000;fill:#ffffff;fill-opacity:1;stroke:none;stroke-width:0.1;marker:none;visibility:visible;display:inline;overflow:visible;enable-background:accumulate"
         inkscape:export-filename="D:\Dima\UMI_market\Sport\Brands\SeaDust.png"
         inkscape:export-xdpi="90"
         inkscape:export-ydpi="90" />
    </g>
    <text
       xml:space="preserve"
       style="font-size:28.04110146px;font-style:normal;font-variant:normal;font-weight:normal;font-stretch:normal;text-align:center;line-height:125%;letter-spacing:0px;word-spacing:0px;text-anchor:middle;fill:#323232;fill-opacity:1;stroke:none;font-family:Tahoma;-inkscape-font-specification:Tahoma"
       x="991.7926"
       y="953.19452"
       id="text3085"
       sodipodi:linespacing="125%"
       inkscape:export-filename="D:\Dima\UMI_market\Sport\Brands\Mountain_Trace.png"
       inkscape:export-xdpi="90"
       inkscape:export-ydpi="90"><tspan
         sodipodi:role="line"
         x="991.7926"
         y="953.19452"
         id="tspan3089"
         style="font-size:28.04110146px;font-style:normal;font-variant:normal;font-weight:normal;font-stretch:normal;text-align:start;line-height:125%;writing-mode:lr-tb;text-anchor:start;fill:#323232;fill-opacity:1;font-family:Russo One;-inkscape-font-specification:Russo One">TRACE</tspan><tspan
         sodipodi:role="line"
         x="991.7926"
         y="988.24591"
         style="font-size:28.04110146px;font-style:normal;font-variant:normal;font-weight:normal;font-stretch:normal;text-align:start;line-height:125%;writing-mode:lr-tb;text-anchor:start;fill:#323232;fill-opacity:1;font-family:Russo One;-inkscape-font-specification:Russo One"
         id="tspan3099" /></text>
    <text
       sodipodi:linespacing="125%"
       id="text3091"
       y="928.73218"
       x="992.19391"
       style="font-size:19.81188965px;font-style:normal;font-variant:normal;font-weight:normal;font-stretch:normal;text-align:center;line-height:125%;letter-spacing:0px;word-spacing:0px;text-anchor:middle;fill:#323232;fill-opacity:1;stroke:none;font-family:Tahoma;-inkscape-font-specification:Tahoma"
       xml:space="preserve"
       inkscape:export-filename="D:\Dima\UMI_market\Sport\Brands\Mountain_Trace.png"
       inkscape:export-xdpi="90"
       inkscape:export-ydpi="90"><tspan
         style="font-size:19.81188965px;font-style:normal;font-variant:normal;font-weight:normal;font-stretch:normal;text-align:start;line-height:125%;writing-mode:lr-tb;text-anchor:start;fill:#323232;fill-opacity:1;font-family:Roboto Slab;-inkscape-font-specification:Roboto Slab"
         y="928.73218"
         x="992.19391"
         sodipodi:role="line"
         id="tspan3105">mountain</tspan></text>
    <text
       sodipodi:linespacing="125%"
       id="text3102"
       y="955.71429"
       x="294.99274"
       style="font-size:30.17998314px;font-style:normal;font-variant:normal;font-weight:normal;font-stretch:normal;text-align:center;line-height:125%;letter-spacing:0px;word-spacing:0px;text-anchor:middle;fill:#323232;fill-opacity:1;stroke:none;font-family:Tahoma;-inkscape-font-specification:Tahoma"
       xml:space="preserve"
       inkscape:export-filename="D:\Dima\UMI_market\Sport\Brands\SnowPath.png"
       inkscape:export-xdpi="90"
       inkscape:export-ydpi="90"><tspan
         style="font-size:30.17998314px;font-style:normal;font-variant:normal;font-weight:bold;font-stretch:normal;text-align:start;line-height:125%;writing-mode:lr-tb;text-anchor:start;fill:#323232;fill-opacity:1;font-family:Xolonium;-inkscape-font-specification:Xolonium Bold"
         id="tspan3104"
         y="955.71429"
         x="294.99274"
         sodipodi:role="line">PATH</tspan></text>
    <text
       xml:space="preserve"
       style="font-size:20.25028229px;font-style:normal;font-variant:normal;font-weight:normal;font-stretch:normal;text-align:center;line-height:125%;letter-spacing:0px;word-spacing:0px;text-anchor:middle;fill:#323232;fill-opacity:1;stroke:none;font-family:Tahoma;-inkscape-font-specification:Tahoma"
       x="296.86154"
       y="928.80048"
       id="text3106"
       sodipodi:linespacing="125%"
       inkscape:export-filename="D:\Dima\UMI_market\Sport\Brands\SnowPath.png"
       inkscape:export-xdpi="90"
       inkscape:export-ydpi="90"><tspan
         sodipodi:role="line"
         x="296.86154"
         y="928.80048"
         id="tspan3108"
         style="font-size:20.25028229px;font-style:normal;font-variant:normal;font-weight:bold;font-stretch:normal;text-align:start;line-height:125%;writing-mode:lr-tb;text-anchor:start;fill:#323232;fill-opacity:1;font-family:Xolonium;-inkscape-font-specification:Xolonium Bold">snow</tspan></text>
    <path
       id="path3112"
       style="color:#000000;fill:#323232;fill-opacity:1;stroke:none;stroke-width:0.1;marker:none;visibility:visible;display:inline;overflow:visible;enable-background:accumulate"
       d="m 1095.8871,955.92664 c 0,0 -14.5882,14.93092 -23.3197,14.93092 -8.7316,0 -14.5883,-14.96585 -23.3197,-14.93092 -8.5711,0.0343 -14.2068,14.93092 -22.7778,14.93092 -8.5711,0 -14.2069,-14.93092 -22.7779,-14.93092 -8.57122,0 -22.77804,14.93092 -22.77804,14.93092 0,0 14.20682,-9.95394 22.77804,-9.95394 8.571,0 14.2068,9.95394 22.7779,9.95394 8.571,0 14.2067,-9.91963 22.7778,-9.95394 8.7314,-0.0349 14.5881,9.95394 23.3197,9.95394 8.7315,0 23.3197,-9.95394 23.3197,-9.95394 z"
       inkscape:connector-curvature="0"
       sodipodi:nodetypes="csssscsssscc"
       inkscape:export-filename="D:\Dima\UMI_market\Sport\Brands\Mountain_Trace.png"
       inkscape:export-xdpi="90"
       inkscape:export-ydpi="90" />
    <path
       inkscape:connector-curvature="0"
       inkscape:export-ydpi="90"
       inkscape:export-xdpi="90"
       inkscape:export-filename="D:\Dima\UMI_market\Sport\Brands\SeaDust.png"
       id="path3087"
       d="m 970.25,472.5497 c -6.50777,7.7126 -13.67525,17.6541 -13.5,44.5 0.15428,23.6345 5.284,42.0522 8.5,47.5 0.84848,1.4373 3.78626,1.5312 5,1.5312 1.21374,0 4.18277,-0.094 5.03125,-1.5312 3.216,-5.4478 8.31447,-23.8655 8.46875,-47.5 0.17525,-26.8459 -6.99223,-36.7874 -13.5,-44.5 z m -0.78125,11.7812 c 0.0924,-0.01 0.18787,0.01 0.28125,0 l 0,69.9688 c -11.15823,-0.6583 -11.07685,-28.978 -12.34375,-36.6563 -0.16168,-19.4726 4.09474,-32.5167 12.0625,-33.3125 z m 1.28125,0 c 8.14833,0.5171 12.53856,13.6141 12.375,33.3125 -0.0847,4.6574 -1.18071,35.576 -12.375,36.6563 l 0,-69.9688 z m -6.21875,67.4063 c 0.58254,1.5238 0.80926,4.9552 0,7.4687 -0.80926,-2.5135 -0.58254,-5.9449 0,-7.4687 z m 11.4375,0 c 0.58254,1.5238 0.80926,4.9552 0,7.4687 -0.80926,-2.5135 -0.58254,-5.9449 0,-7.4687 z m -5.71875,6.7812 c 0.58254,1.5238 0.80926,4.9865 0,7.5 -0.80926,-2.5135 -0.58254,-5.9762 0,-7.5 z"
       style="color:#000000;fill:#323232;fill-opacity:1;fill-rule:nonzero;stroke:none;stroke-width:2;marker:none;visibility:visible;display:inline;overflow:visible;enable-background:accumulate" />
    <text
       inkscape:export-ydpi="90"
       inkscape:export-xdpi="90"
       inkscape:export-filename="D:\Dima\UMI_market\Sport\Brands\SeaDust.png"
       sodipodi:linespacing="125%"
       id="text3089"
       y="537.09729"
       x="991.11566"
       style="font-size:23.71852875px;font-style:normal;font-variant:normal;font-weight:normal;font-stretch:normal;text-align:center;line-height:125%;letter-spacing:0px;word-spacing:0px;text-anchor:middle;fill:#323232;fill-opacity:1;stroke:none;font-family:Tahoma;-inkscape-font-specification:Tahoma"
       xml:space="preserve"><tspan
         style="font-size:23.71852875px;font-style:normal;font-variant:normal;font-weight:normal;font-stretch:normal;text-align:start;line-height:125%;writing-mode:lr-tb;text-anchor:start;fill:#323232;fill-opacity:1;font-family:Russo One;-inkscape-font-specification:Russo One"
         id="tspan3091"
         y="537.09729"
         x="991.11566"
         sodipodi:role="line">DUST</tspan></text>
    <text
       inkscape:export-ydpi="90"
       inkscape:export-xdpi="90"
       inkscape:export-filename="D:\Dima\UMI_market\Sport\Brands\SeaDust.png"
       xml:space="preserve"
       style="font-size:16.67588806px;font-style:normal;font-variant:normal;font-weight:normal;font-stretch:normal;text-align:center;line-height:125%;letter-spacing:0px;word-spacing:0px;text-anchor:middle;fill:#323232;fill-opacity:1;stroke:none;font-family:Tahoma;-inkscape-font-specification:Tahoma"
       x="991.32544"
       y="513.22852"
       id="text3093"
       sodipodi:linespacing="125%"><tspan
         sodipodi:role="line"
         x="991.32544"
         y="513.22852"
         id="tspan3095"
         style="font-size:16.67588806px;font-style:normal;font-variant:normal;font-weight:normal;font-stretch:normal;text-align:start;line-height:125%;writing-mode:lr-tb;text-anchor:start;fill:#323232;fill-opacity:1;font-family:Russo One;-inkscape-font-specification:Russo One">SEA</tspan></text>
    <path
       inkscape:export-ydpi="90"
       inkscape:export-xdpi="90"
       inkscape:export-filename="D:\Dima\UMI_market\Sport\Brands\SeaDust.png"
       sodipodi:nodetypes="csssscsssscc"
       inkscape:connector-curvature="0"
       d="m 1064.6638,543.20691 c 0,0 -9.9286,12.55551 -15.8712,12.55551 -5.9426,0 -9.9287,-12.58489 -15.8712,-12.55551 -5.8334,0.0289 -9.669,12.55551 -15.5024,12.55551 -5.8335,0 -9.6691,-12.55551 -15.5025,-12.55551 -5.83348,0 -15.50254,12.55551 -15.50254,12.55551 0,0 9.66906,-8.37034 15.50254,-8.37034 5.8334,0 9.669,8.37034 15.5025,8.37034 5.8334,0 9.669,-8.34149 15.5024,-8.37034 5.9425,-0.0293 9.9286,8.37034 15.8712,8.37034 5.9426,0 15.8712,-8.37034 15.8712,-8.37034 z"
       style="color:#000000;fill:#323232;fill-opacity:1;stroke:none;stroke-width:0.1;marker:none;visibility:visible;display:inline;overflow:visible;enable-background:accumulate"
       id="path3097" />
    <path
       inkscape:export-ydpi="90"
       inkscape:export-xdpi="90"
       inkscape:export-filename="D:\Dima\UMI_market\Sport\Brands\Mountain_Trace.png"
       sodipodi:nodetypes="csssscsssscc"
       inkscape:connector-curvature="0"
       d="m 1095.8871,963.5815 c 0,0 -14.5882,14.93092 -23.3197,14.93092 -8.7316,0 -14.5883,-14.96586 -23.3197,-14.93092 -8.5711,0.0343 -14.2068,14.93092 -22.7778,14.93092 -8.5711,0 -14.2069,-14.93092 -22.7779,-14.93092 -8.57122,0 -22.77804,14.93092 -22.77804,14.93092 0,0 14.20682,-9.95396 22.77804,-9.95396 8.571,0 14.2068,9.95396 22.7779,9.95396 8.571,0 14.2067,-9.91964 22.7778,-9.95396 8.7314,-0.0349 14.5881,9.95396 23.3197,9.95396 8.7315,0 23.3197,-9.95396 23.3197,-9.95396 z"
       style="color:#000000;fill:#323232;fill-opacity:1;stroke:none;stroke-width:0.1;marker:none;visibility:visible;display:inline;overflow:visible;enable-background:accumulate"
       id="path3115" />
  </g>
</svg>
